<svg width="100%" height="auto" viewBox="0 0 633 164" fill="none" xmlns="http://www.w3.org/2000/svg">
<path d="M608.025 128.017L608.538 123.197H614.137V124.25H609.509L609.215 127.039C609.479 126.784 609.796 126.592 610.165 126.465C610.534 126.333 610.912 126.267 611.3 126.267C611.765 126.267 612.193 126.353 612.585 126.526C612.981 126.695 613.323 126.93 613.61 127.23C613.902 127.531 614.128 127.887 614.287 128.297C614.451 128.707 614.533 129.149 614.533 129.623C614.533 130.152 614.447 130.632 614.273 131.065C614.105 131.498 613.866 131.87 613.556 132.18C613.246 132.485 612.877 132.722 612.448 132.891C612.02 133.055 611.548 133.137 611.033 133.137C610.628 133.137 610.243 133.091 609.878 133C609.518 132.904 609.192 132.763 608.9 132.576C608.609 132.385 608.358 132.15 608.148 131.872C607.943 131.59 607.798 131.261 607.711 130.888L608.907 130.635C608.957 130.831 609.042 131.018 609.16 131.195C609.279 131.368 609.429 131.523 609.611 131.66C609.794 131.792 610.003 131.897 610.24 131.975C610.477 132.052 610.742 132.091 611.033 132.091C611.384 132.091 611.699 132.032 611.977 131.913C612.255 131.795 612.489 131.631 612.681 131.421C612.872 131.207 613.018 130.954 613.118 130.662C613.223 130.37 613.275 130.054 613.275 129.712C613.275 129.356 613.223 129.033 613.118 128.741C613.018 128.45 612.87 128.199 612.674 127.989C612.482 127.775 612.248 127.611 611.97 127.497C611.692 127.379 611.375 127.319 611.02 127.319C610.851 127.319 610.678 127.34 610.5 127.381C610.327 127.422 610.158 127.479 609.994 127.552C609.835 127.625 609.684 127.714 609.543 127.818C609.402 127.923 609.281 128.039 609.181 128.167L608.025 128.017ZM619.667 132.077C619.986 132.077 620.282 131.993 620.556 131.824C620.834 131.656 621.071 131.414 621.267 131.1C621.467 130.781 621.624 130.391 621.738 129.931C621.852 129.466 621.909 128.939 621.909 128.352V127.859C621.909 127.271 621.852 126.747 621.738 126.287C621.624 125.827 621.467 125.437 621.267 125.118C621.071 124.799 620.834 124.558 620.556 124.394C620.282 124.225 619.986 124.141 619.667 124.141C619.343 124.141 619.045 124.225 618.771 124.394C618.498 124.558 618.261 124.799 618.061 125.118C617.865 125.437 617.71 125.827 617.596 126.287C617.482 126.747 617.425 127.271 617.425 127.859V128.352C617.425 128.939 617.482 129.466 617.596 129.931C617.71 130.391 617.865 130.781 618.061 131.1C618.261 131.414 618.498 131.656 618.771 131.824C619.045 131.993 619.343 132.077 619.667 132.077ZM619.667 123.074C620.086 123.074 620.465 123.14 620.802 123.272C621.139 123.405 621.435 123.587 621.69 123.819C621.95 124.047 622.171 124.321 622.354 124.64C622.54 124.959 622.693 125.305 622.812 125.679C622.93 126.048 623.017 126.44 623.071 126.854C623.126 127.269 623.153 127.688 623.153 128.112C623.153 128.536 623.126 128.955 623.071 129.37C623.017 129.78 622.93 130.172 622.812 130.546C622.693 130.915 622.54 131.259 622.354 131.578C622.171 131.893 621.95 132.166 621.69 132.398C621.435 132.631 621.139 132.813 620.802 132.945C620.465 133.073 620.086 133.137 619.667 133.137C619.248 133.137 618.869 133.073 618.532 132.945C618.195 132.813 617.896 132.631 617.637 132.398C617.382 132.166 617.16 131.893 616.974 131.578C616.791 131.259 616.641 130.915 616.522 130.546C616.404 130.172 616.317 129.78 616.263 129.37C616.208 128.955 616.181 128.536 616.181 128.112C616.181 127.688 616.208 127.269 616.263 126.854C616.317 126.44 616.404 126.048 616.522 125.679C616.641 125.305 616.791 124.959 616.974 124.64C617.16 124.321 617.382 124.047 617.637 123.819C617.896 123.587 618.195 123.405 618.532 123.272C618.869 123.14 619.248 123.074 619.667 123.074Z" fill="#505A5F"/>
<path d="M611.396 162.077C611.715 162.077 612.011 161.993 612.284 161.824C612.562 161.656 612.799 161.414 612.995 161.1C613.196 160.781 613.353 160.391 613.467 159.931C613.581 159.466 613.638 158.939 613.638 158.352V157.859C613.638 157.271 613.581 156.747 613.467 156.287C613.353 155.827 613.196 155.437 612.995 155.118C612.799 154.799 612.562 154.558 612.284 154.394C612.011 154.225 611.715 154.141 611.396 154.141C611.072 154.141 610.773 154.225 610.5 154.394C610.227 154.558 609.99 154.799 609.789 155.118C609.593 155.437 609.438 155.827 609.324 156.287C609.21 156.747 609.153 157.271 609.153 157.859V158.352C609.153 158.939 609.21 159.466 609.324 159.931C609.438 160.391 609.593 160.781 609.789 161.1C609.99 161.414 610.227 161.656 610.5 161.824C610.773 161.993 611.072 162.077 611.396 162.077ZM611.396 153.074C611.815 153.074 612.193 153.14 612.53 153.272C612.868 153.405 613.164 153.587 613.419 153.819C613.679 154.047 613.9 154.321 614.082 154.64C614.269 154.959 614.422 155.305 614.54 155.679C614.659 156.048 614.745 156.44 614.8 156.854C614.854 157.269 614.882 157.688 614.882 158.112C614.882 158.536 614.854 158.955 614.8 159.37C614.745 159.78 614.659 160.172 614.54 160.546C614.422 160.915 614.269 161.259 614.082 161.578C613.9 161.893 613.679 162.166 613.419 162.398C613.164 162.631 612.868 162.813 612.53 162.945C612.193 163.073 611.815 163.137 611.396 163.137C610.976 163.137 610.598 163.073 610.261 162.945C609.924 162.813 609.625 162.631 609.365 162.398C609.11 162.166 608.889 161.893 608.702 161.578C608.52 161.259 608.369 160.915 608.251 160.546C608.132 160.172 608.046 159.78 607.991 159.37C607.937 158.955 607.909 158.536 607.909 158.112C607.909 157.688 607.937 157.269 607.991 156.854C608.046 156.44 608.132 156.048 608.251 155.679C608.369 155.305 608.52 154.959 608.702 154.64C608.889 154.321 609.11 154.047 609.365 153.819C609.625 153.587 609.924 153.405 610.261 153.272C610.598 153.14 610.976 153.074 611.396 153.074Z" fill="#505A5F"/>
<path d="M607.854 94.7832C608.174 94.7832 608.433 94.7581 608.634 94.708C608.834 94.6533 608.989 94.569 609.099 94.4551C609.208 94.3411 609.281 94.1953 609.317 94.0176C609.358 93.8353 609.379 93.6143 609.379 93.3545V93.1973H610.541V103H609.338V95.8018H607.431V94.7832H607.854ZM616.563 102.077C616.882 102.077 617.179 101.993 617.452 101.824C617.73 101.656 617.967 101.414 618.163 101.1C618.364 100.781 618.521 100.391 618.635 99.9307C618.749 99.4658 618.806 98.9395 618.806 98.3516V97.8594C618.806 97.2715 618.749 96.7474 618.635 96.2871C618.521 95.8268 618.364 95.4372 618.163 95.1182C617.967 94.7992 617.73 94.5576 617.452 94.3936C617.179 94.2249 616.882 94.1406 616.563 94.1406C616.24 94.1406 615.941 94.2249 615.668 94.3936C615.395 94.5576 615.158 94.7992 614.957 95.1182C614.761 95.4372 614.606 95.8268 614.492 96.2871C614.378 96.7474 614.321 97.2715 614.321 97.8594V98.3516C614.321 98.9395 614.378 99.4658 614.492 99.9307C614.606 100.391 614.761 100.781 614.957 101.1C615.158 101.414 615.395 101.656 615.668 101.824C615.941 101.993 616.24 102.077 616.563 102.077ZM616.563 93.0742C616.983 93.0742 617.361 93.1403 617.698 93.2725C618.035 93.4046 618.332 93.5869 618.587 93.8193C618.847 94.0472 619.068 94.3206 619.25 94.6396C619.437 94.9587 619.59 95.305 619.708 95.6787C619.826 96.0479 619.913 96.4398 619.968 96.8545C620.022 97.2692 620.05 97.6885 620.05 98.1123C620.05 98.5361 620.022 98.9554 619.968 99.3701C619.913 99.7803 619.826 100.172 619.708 100.546C619.59 100.915 619.437 101.259 619.25 101.578C619.068 101.893 618.847 102.166 618.587 102.398C618.332 102.631 618.035 102.813 617.698 102.945C617.361 103.073 616.983 103.137 616.563 103.137C616.144 103.137 615.766 103.073 615.429 102.945C615.091 102.813 614.793 102.631 614.533 102.398C614.278 102.166 614.057 101.893 613.87 101.578C613.688 101.259 613.537 100.915 613.419 100.546C613.3 100.172 613.214 99.7803 613.159 99.3701C613.104 98.9554 613.077 98.5361 613.077 98.1123C613.077 97.6885 613.104 97.2692 613.159 96.8545C613.214 96.4398 613.3 96.0479 613.419 95.6787C613.537 95.305 613.688 94.9587 613.87 94.6396C614.057 94.3206 614.278 94.0472 614.533 93.8193C614.793 93.5869 615.091 93.4046 615.429 93.2725C615.766 93.1403 616.144 93.0742 616.563 93.0742ZM625.354 102.077C625.674 102.077 625.97 101.993 626.243 101.824C626.521 101.656 626.758 101.414 626.954 101.1C627.155 100.781 627.312 100.391 627.426 99.9307C627.54 99.4658 627.597 98.9395 627.597 98.3516V97.8594C627.597 97.2715 627.54 96.7474 627.426 96.2871C627.312 95.8268 627.155 95.4372 626.954 95.1182C626.758 94.7992 626.521 94.5576 626.243 94.3936C625.97 94.2249 625.674 94.1406 625.354 94.1406C625.031 94.1406 624.732 94.2249 624.459 94.3936C624.186 94.5576 623.949 94.7992 623.748 95.1182C623.552 95.4372 623.397 95.8268 623.283 96.2871C623.169 96.7474 623.112 97.2715 623.112 97.8594V98.3516C623.112 98.9395 623.169 99.4658 623.283 99.9307C623.397 100.391 623.552 100.781 623.748 101.1C623.949 101.414 624.186 101.656 624.459 101.824C624.732 101.993 625.031 102.077 625.354 102.077ZM625.354 93.0742C625.774 93.0742 626.152 93.1403 626.489 93.2725C626.826 93.4046 627.123 93.5869 627.378 93.8193C627.638 94.0472 627.859 94.3206 628.041 94.6396C628.228 94.9587 628.381 95.305 628.499 95.6787C628.618 96.0479 628.704 96.4398 628.759 96.8545C628.813 97.2692 628.841 97.6885 628.841 98.1123C628.841 98.5361 628.813 98.9554 628.759 99.3701C628.704 99.7803 628.618 100.172 628.499 100.546C628.381 100.915 628.228 101.259 628.041 101.578C627.859 101.893 627.638 102.166 627.378 102.398C627.123 102.631 626.826 102.813 626.489 102.945C626.152 103.073 625.774 103.137 625.354 103.137C624.935 103.137 624.557 103.073 624.22 102.945C623.882 102.813 623.584 102.631 623.324 102.398C623.069 102.166 622.848 101.893 622.661 101.578C622.479 101.259 622.328 100.915 622.21 100.546C622.091 100.172 622.005 99.7803 621.95 99.3701C621.896 98.9554 621.868 98.5361 621.868 98.1123C621.868 97.6885 621.896 97.2692 621.95 96.8545C622.005 96.4398 622.091 96.0479 622.21 95.6787C622.328 95.305 622.479 94.9587 622.661 94.6396C622.848 94.3206 623.069 94.0472 623.324 93.8193C623.584 93.5869 623.882 93.4046 624.22 93.2725C624.557 93.1403 624.935 93.0742 625.354 93.0742Z" fill="#505A5F"/>
<path d="M607.854 64.7832C608.174 64.7832 608.433 64.7581 608.634 64.708C608.834 64.6533 608.989 64.569 609.099 64.4551C609.208 64.3411 609.281 64.1953 609.317 64.0176C609.358 63.8353 609.379 63.6143 609.379 63.3545V63.1973H610.541V73H609.338V65.8018H607.431V64.7832H607.854ZM613.193 68.0166L613.706 63.1973H619.305V64.25H614.677L614.383 67.0391C614.647 66.7839 614.964 66.5924 615.333 66.4648C615.702 66.3327 616.08 66.2666 616.468 66.2666C616.933 66.2666 617.361 66.3532 617.753 66.5264C618.149 66.695 618.491 66.9297 618.778 67.2305C619.07 67.5312 619.296 67.8867 619.455 68.2969C619.619 68.707 619.701 69.1491 619.701 69.623C619.701 70.1517 619.615 70.6325 619.441 71.0654C619.273 71.4984 619.034 71.8698 618.724 72.1797C618.414 72.485 618.045 72.722 617.616 72.8906C617.188 73.0547 616.716 73.1367 616.201 73.1367C615.796 73.1367 615.41 73.0911 615.046 73C614.686 72.9043 614.36 72.763 614.068 72.5762C613.777 72.3848 613.526 72.1501 613.316 71.8721C613.111 71.5895 612.965 71.2614 612.879 70.8877L614.075 70.6348C614.125 70.8307 614.21 71.0176 614.328 71.1953C614.447 71.3685 614.597 71.5234 614.779 71.6602C614.962 71.7923 615.171 71.8971 615.408 71.9746C615.645 72.0521 615.91 72.0908 616.201 72.0908C616.552 72.0908 616.867 72.0316 617.145 71.9131C617.423 71.7946 617.657 71.6305 617.849 71.4209C618.04 71.2067 618.186 70.9538 618.286 70.6621C618.391 70.3704 618.443 70.0537 618.443 69.7119C618.443 69.3564 618.391 69.0329 618.286 68.7412C618.186 68.4495 618.038 68.1989 617.842 67.9893C617.65 67.7751 617.416 67.611 617.138 67.4971C616.86 67.3786 616.543 67.3193 616.188 67.3193C616.019 67.3193 615.846 67.3398 615.668 67.3809C615.495 67.4219 615.326 67.4788 615.162 67.5518C615.003 67.6247 614.852 67.7135 614.711 67.8184C614.57 67.9232 614.449 68.0394 614.349 68.167L613.193 68.0166ZM624.835 72.0771C625.154 72.0771 625.45 71.9928 625.724 71.8242C626.002 71.6556 626.239 71.4141 626.435 71.0996C626.635 70.7806 626.792 70.391 626.906 69.9307C627.02 69.4658 627.077 68.9395 627.077 68.3516V67.8594C627.077 67.2715 627.02 66.7474 626.906 66.2871C626.792 65.8268 626.635 65.4372 626.435 65.1182C626.239 64.7992 626.002 64.5576 625.724 64.3936C625.45 64.2249 625.154 64.1406 624.835 64.1406C624.511 64.1406 624.213 64.2249 623.939 64.3936C623.666 64.5576 623.429 64.7992 623.229 65.1182C623.033 65.4372 622.878 65.8268 622.764 66.2871C622.65 66.7474 622.593 67.2715 622.593 67.8594V68.3516C622.593 68.9395 622.65 69.4658 622.764 69.9307C622.878 70.391 623.033 70.7806 623.229 71.0996C623.429 71.4141 623.666 71.6556 623.939 71.8242C624.213 71.9928 624.511 72.0771 624.835 72.0771ZM624.835 63.0742C625.254 63.0742 625.632 63.1403 625.97 63.2725C626.307 63.4046 626.603 63.5869 626.858 63.8193C627.118 64.0472 627.339 64.3206 627.521 64.6396C627.708 64.9587 627.861 65.305 627.979 65.6787C628.098 66.0479 628.185 66.4398 628.239 66.8545C628.294 67.2692 628.321 67.6885 628.321 68.1123C628.321 68.5361 628.294 68.9554 628.239 69.3701C628.185 69.7803 628.098 70.1722 627.979 70.5459C627.861 70.915 627.708 71.2591 627.521 71.5781C627.339 71.8926 627.118 72.166 626.858 72.3984C626.603 72.6309 626.307 72.8132 625.97 72.9453C625.632 73.0729 625.254 73.1367 624.835 73.1367C624.416 73.1367 624.037 73.0729 623.7 72.9453C623.363 72.8132 623.064 72.6309 622.805 72.3984C622.549 72.166 622.328 71.8926 622.142 71.5781C621.959 71.2591 621.809 70.915 621.69 70.5459C621.572 70.1722 621.485 69.7803 621.431 69.3701C621.376 68.9554 621.349 68.5361 621.349 68.1123C621.349 67.6885 621.376 67.2692 621.431 66.8545C621.485 66.4398 621.572 66.0479 621.69 65.6787C621.809 65.305 621.959 64.9587 622.142 64.6396C622.328 64.3206 622.549 64.0472 622.805 63.8193C623.064 63.5869 623.363 63.4046 623.7 63.2725C624.037 63.1403 624.416 63.0742 624.835 63.0742Z" fill="#505A5F"/>
<path d="M609.563 41.9473H614.451V43H607.923V41.8516C608.547 41.4323 609.11 41.0449 609.611 40.6895C610.113 40.334 610.555 39.999 610.938 39.6846C611.32 39.3656 611.648 39.0625 611.922 38.7754C612.2 38.4883 612.428 38.2035 612.605 37.9209C612.783 37.6383 612.913 37.3535 612.995 37.0664C613.077 36.7793 613.118 36.4762 613.118 36.1572C613.118 35.8838 613.07 35.624 612.975 35.3779C612.883 35.1318 612.749 34.9176 612.571 34.7354C612.398 34.5485 612.182 34.4004 611.922 34.291C611.667 34.1816 611.375 34.127 611.047 34.127C610.783 34.127 610.527 34.1657 610.281 34.2432C610.04 34.3161 609.823 34.4346 609.632 34.5986C609.445 34.7627 609.292 34.9746 609.174 35.2344C609.055 35.4896 608.989 35.7972 608.976 36.1572L607.841 36.0273C607.859 35.5716 607.948 35.1615 608.107 34.7969C608.267 34.4323 608.486 34.1224 608.764 33.8672C609.046 33.612 609.381 33.416 609.769 33.2793C610.16 33.1426 610.596 33.0742 611.074 33.0742C611.539 33.0742 611.97 33.1517 612.366 33.3066C612.767 33.457 613.114 33.6689 613.405 33.9424C613.701 34.2158 613.932 34.5394 614.096 34.9131C614.264 35.2868 614.349 35.6947 614.349 36.1367C614.349 36.6608 614.257 37.153 614.075 37.6133C613.897 38.0736 613.624 38.527 613.255 38.9736C612.886 39.4157 612.416 39.8623 611.847 40.3135C611.282 40.7646 610.614 41.2409 609.844 41.7422L609.563 41.9199V41.9473ZM619.735 42.0771C620.054 42.0771 620.351 41.9928 620.624 41.8242C620.902 41.6556 621.139 41.4141 621.335 41.0996C621.535 40.7806 621.693 40.391 621.807 39.9307C621.921 39.4658 621.978 38.9395 621.978 38.3516V37.8594C621.978 37.2715 621.921 36.7474 621.807 36.2871C621.693 35.8268 621.535 35.4372 621.335 35.1182C621.139 34.7992 620.902 34.5576 620.624 34.3936C620.351 34.2249 620.054 34.1406 619.735 34.1406C619.412 34.1406 619.113 34.2249 618.84 34.3936C618.566 34.5576 618.329 34.7992 618.129 35.1182C617.933 35.4372 617.778 35.8268 617.664 36.2871C617.55 36.7474 617.493 37.2715 617.493 37.8594V38.3516C617.493 38.9395 617.55 39.4658 617.664 39.9307C617.778 40.391 617.933 40.7806 618.129 41.0996C618.329 41.4141 618.566 41.6556 618.84 41.8242C619.113 41.9928 619.412 42.0771 619.735 42.0771ZM619.735 33.0742C620.155 33.0742 620.533 33.1403 620.87 33.2725C621.207 33.4046 621.504 33.5869 621.759 33.8193C622.019 34.0472 622.24 34.3206 622.422 34.6396C622.609 34.9587 622.761 35.305 622.88 35.6787C622.998 36.0479 623.085 36.4398 623.14 36.8545C623.194 37.2692 623.222 37.6885 623.222 38.1123C623.222 38.5361 623.194 38.9554 623.14 39.3701C623.085 39.7803 622.998 40.1722 622.88 40.5459C622.761 40.915 622.609 41.2591 622.422 41.5781C622.24 41.8926 622.019 42.166 621.759 42.3984C621.504 42.6309 621.207 42.8132 620.87 42.9453C620.533 43.0729 620.155 43.1367 619.735 43.1367C619.316 43.1367 618.938 43.0729 618.601 42.9453C618.263 42.8132 617.965 42.6309 617.705 42.3984C617.45 42.166 617.229 41.8926 617.042 41.5781C616.86 41.2591 616.709 40.915 616.591 40.5459C616.472 40.1722 616.386 39.7803 616.331 39.3701C616.276 38.9554 616.249 38.5361 616.249 38.1123C616.249 37.6885 616.276 37.2692 616.331 36.8545C616.386 36.4398 616.472 36.0479 616.591 35.6787C616.709 35.305 616.86 34.9587 617.042 34.6396C617.229 34.3206 617.45 34.0472 617.705 33.8193C617.965 33.5869 618.263 33.4046 618.601 33.2725C618.938 33.1403 619.316 33.0742 619.735 33.0742ZM628.526 42.0771C628.845 42.0771 629.142 41.9928 629.415 41.8242C629.693 41.6556 629.93 41.4141 630.126 41.0996C630.326 40.7806 630.484 40.391 630.598 39.9307C630.712 39.4658 630.769 38.9395 630.769 38.3516V37.8594C630.769 37.2715 630.712 36.7474 630.598 36.2871C630.484 35.8268 630.326 35.4372 630.126 35.1182C629.93 34.7992 629.693 34.5576 629.415 34.3936C629.142 34.2249 628.845 34.1406 628.526 34.1406C628.203 34.1406 627.904 34.2249 627.631 34.3936C627.357 34.5576 627.12 34.7992 626.92 35.1182C626.724 35.4372 626.569 35.8268 626.455 36.2871C626.341 36.7474 626.284 37.2715 626.284 37.8594V38.3516C626.284 38.9395 626.341 39.4658 626.455 39.9307C626.569 40.391 626.724 40.7806 626.92 41.0996C627.12 41.4141 627.357 41.6556 627.631 41.8242C627.904 41.9928 628.203 42.0771 628.526 42.0771ZM628.526 33.0742C628.946 33.0742 629.324 33.1403 629.661 33.2725C629.998 33.4046 630.295 33.5869 630.55 33.8193C630.81 34.0472 631.031 34.3206 631.213 34.6396C631.4 34.9587 631.552 35.305 631.671 35.6787C631.789 36.0479 631.876 36.4398 631.931 36.8545C631.985 37.2692 632.013 37.6885 632.013 38.1123C632.013 38.5361 631.985 38.9554 631.931 39.3701C631.876 39.7803 631.789 40.1722 631.671 40.5459C631.552 40.915 631.4 41.2591 631.213 41.5781C631.031 41.8926 630.81 42.166 630.55 42.3984C630.295 42.6309 629.998 42.8132 629.661 42.9453C629.324 43.0729 628.946 43.1367 628.526 43.1367C628.107 43.1367 627.729 43.0729 627.392 42.9453C627.054 42.8132 626.756 42.6309 626.496 42.3984C626.241 42.166 626.02 41.8926 625.833 41.5781C625.651 41.2591 625.5 40.915 625.382 40.5459C625.263 40.1722 625.177 39.7803 625.122 39.3701C625.067 38.9554 625.04 38.5361 625.04 38.1123C625.04 37.6885 625.067 37.2692 625.122 36.8545C625.177 36.4398 625.263 36.0479 625.382 35.6787C625.5 35.305 625.651 34.9587 625.833 34.6396C626.02 34.3206 626.241 34.0472 626.496 33.8193C626.756 33.5869 627.054 33.4046 627.392 33.2725C627.729 33.1403 628.107 33.0742 628.526 33.0742Z" fill="#505A5F"/>
<path d="M609.563 11.9473H614.451V13H607.923V11.8516C608.547 11.4323 609.11 11.0449 609.611 10.6895C610.113 10.334 610.555 9.99902 610.938 9.68457C611.32 9.36556 611.648 9.0625 611.922 8.77539C612.2 8.48828 612.428 8.20345 612.605 7.9209C612.783 7.63835 612.913 7.35352 612.995 7.06641C613.077 6.7793 613.118 6.47624 613.118 6.15723C613.118 5.88379 613.07 5.62402 612.975 5.37793C612.883 5.13184 612.749 4.91764 612.571 4.73535C612.398 4.5485 612.182 4.40039 611.922 4.29102C611.667 4.18164 611.375 4.12695 611.047 4.12695C610.783 4.12695 610.527 4.16569 610.281 4.24316C610.04 4.31608 609.823 4.43457 609.632 4.59863C609.445 4.7627 609.292 4.97461 609.174 5.23438C609.055 5.48958 608.989 5.7972 608.976 6.15723L607.841 6.02734C607.859 5.57161 607.948 5.16146 608.107 4.79688C608.267 4.43229 608.486 4.1224 608.764 3.86719C609.046 3.61198 609.381 3.41602 609.769 3.2793C610.16 3.14258 610.596 3.07422 611.074 3.07422C611.539 3.07422 611.97 3.15169 612.366 3.30664C612.767 3.45703 613.114 3.66895 613.405 3.94238C613.701 4.21582 613.932 4.53939 614.096 4.91309C614.264 5.28678 614.349 5.69466 614.349 6.13672C614.349 6.66081 614.257 7.15299 614.075 7.61328C613.897 8.07357 613.624 8.52702 613.255 8.97363C612.886 9.41569 612.416 9.8623 611.847 10.3135C611.282 10.7646 610.614 11.2409 609.844 11.7422L609.563 11.9199V11.9473ZM616.365 8.0166L616.878 3.19727H622.477V4.25H617.849L617.555 7.03906C617.819 6.78385 618.136 6.59245 618.505 6.46484C618.874 6.33268 619.252 6.2666 619.64 6.2666C620.104 6.2666 620.533 6.35319 620.925 6.52637C621.321 6.69499 621.663 6.92969 621.95 7.23047C622.242 7.53125 622.467 7.88672 622.627 8.29688C622.791 8.70703 622.873 9.14909 622.873 9.62305C622.873 10.1517 622.786 10.6325 622.613 11.0654C622.445 11.4984 622.205 11.8698 621.896 12.1797C621.586 12.485 621.216 12.722 620.788 12.8906C620.36 13.0547 619.888 13.1367 619.373 13.1367C618.967 13.1367 618.582 13.0911 618.218 13C617.858 12.9043 617.532 12.763 617.24 12.5762C616.949 12.3848 616.698 12.1501 616.488 11.8721C616.283 11.5895 616.137 11.2614 616.051 10.8877L617.247 10.6348C617.297 10.8307 617.382 11.0176 617.5 11.1953C617.618 11.3685 617.769 11.5234 617.951 11.6602C618.133 11.7923 618.343 11.8971 618.58 11.9746C618.817 12.0521 619.081 12.0908 619.373 12.0908C619.724 12.0908 620.038 12.0316 620.316 11.9131C620.594 11.7946 620.829 11.6305 621.021 11.4209C621.212 11.2067 621.358 10.9538 621.458 10.6621C621.563 10.3704 621.615 10.0537 621.615 9.71191C621.615 9.35645 621.563 9.03288 621.458 8.74121C621.358 8.44954 621.21 8.19889 621.014 7.98926C620.822 7.77507 620.588 7.611 620.31 7.49707C620.032 7.37858 619.715 7.31934 619.359 7.31934C619.191 7.31934 619.018 7.33984 618.84 7.38086C618.667 7.42188 618.498 7.47884 618.334 7.55176C618.174 7.62467 618.024 7.71354 617.883 7.81836C617.742 7.92318 617.621 8.03939 617.521 8.16699L616.365 8.0166ZM628.007 12.0771C628.326 12.0771 628.622 11.9928 628.896 11.8242C629.174 11.6556 629.41 11.4141 629.606 11.0996C629.807 10.7806 629.964 10.391 630.078 9.93066C630.192 9.46582 630.249 8.93945 630.249 8.35156V7.85938C630.249 7.27148 630.192 6.7474 630.078 6.28711C629.964 5.82682 629.807 5.43717 629.606 5.11816C629.41 4.79915 629.174 4.55762 628.896 4.39355C628.622 4.22493 628.326 4.14062 628.007 4.14062C627.683 4.14062 627.385 4.22493 627.111 4.39355C626.838 4.55762 626.601 4.79915 626.4 5.11816C626.204 5.43717 626.049 5.82682 625.936 6.28711C625.822 6.7474 625.765 7.27148 625.765 7.85938V8.35156C625.765 8.93945 625.822 9.46582 625.936 9.93066C626.049 10.391 626.204 10.7806 626.4 11.0996C626.601 11.4141 626.838 11.6556 627.111 11.8242C627.385 11.9928 627.683 12.0771 628.007 12.0771ZM628.007 3.07422C628.426 3.07422 628.804 3.1403 629.142 3.27246C629.479 3.40462 629.775 3.58691 630.03 3.81934C630.29 4.0472 630.511 4.32064 630.693 4.63965C630.88 4.95866 631.033 5.30501 631.151 5.67871C631.27 6.04785 631.356 6.43978 631.411 6.85449C631.466 7.26921 631.493 7.68848 631.493 8.1123C631.493 8.53613 631.466 8.9554 631.411 9.37012C631.356 9.78027 631.27 10.1722 631.151 10.5459C631.033 10.915 630.88 11.2591 630.693 11.5781C630.511 11.8926 630.29 12.166 630.03 12.3984C629.775 12.6309 629.479 12.8132 629.142 12.9453C628.804 13.0729 628.426 13.1367 628.007 13.1367C627.588 13.1367 627.209 13.0729 626.872 12.9453C626.535 12.8132 626.236 12.6309 625.977 12.3984C625.721 12.166 625.5 11.8926 625.313 11.5781C625.131 11.2591 624.981 10.915 624.862 10.5459C624.744 10.1722 624.657 9.78027 624.603 9.37012C624.548 8.9554 624.521 8.53613 624.521 8.1123C624.521 7.68848 624.548 7.26921 624.603 6.85449C624.657 6.43978 624.744 6.04785 624.862 5.67871C624.981 5.30501 625.131 4.95866 625.313 4.63965C625.5 4.32064 625.721 4.0472 625.977 3.81934C626.236 3.58691 626.535 3.40462 626.872 3.27246C627.209 3.1403 627.588 3.07422 628.007 3.07422Z" fill="#505A5F"/>
<path d="M0 158H600" stroke="#B1B4B6"/>
<path d="M0 128H599.02" stroke="#E6E6E6"/>
<path d="M0 98H599.02" stroke="#E6E6E6"/>
<path d="M0 68H599.02" stroke="#E6E6E6"/>
<path d="M0 37H599.02" stroke="#FFDD00" stroke-width="3"/>
<path d="M0 38H599.02" stroke="#E6E6E6"/>
<path d="M0.98053 8H599.02" stroke="#E6E6E6"/>
<path d="M7.1066 151.452H0V158H600V144H590.863L559.391 109L541 122.872L507.107 130.226L488.325 146.248L464.5 154.524L439.086 155.239L414.137 154.472L388.325 151.642L362.944 155.048L338.071 155.587L312.69 155.212L287.31 156.427L262.437 155.303L235.025 151.452L210.66 153.935L185.279 146.258L160.914 138.129L134.518 135.194L108.629 123.903L83.7563 151.452L57.3604 155.303L32.9949 153.935L7.1066 151.452Z" fill="#EBF0F7"/>
<path d="M0 151.452H7.1066L32.9949 153.935L57.3604 155.303L83.7563 151.452L108.629 123.903L134.518 135.194L160.914 138.129L185.279 146.258L210.66 153.935L235.025 151.452L262.437 155.303L287.31 156.427L312.69 155.212L338.071 155.587L362.944 155.048L388.325 151.642L414.137 154.472L439.086 155.239L464.5 154.524L488.325 146.248L507.107 130.226L541 122.872L559.391 109L590.863 144H600" stroke="#3A70B3" stroke-width="3"/>
<path d="M302 47.5L309.5 40L316.5 47.5H361.5H420.5V83H197V47.5H302Z" fill="white" stroke="#525A5F"/>
<path d="M214.841 60.1973H216.324V70H215.107V61.6191L211.758 66.1924H211.744L208.374 61.626V70H207.198V60.1973H208.729L211.778 64.3672L214.841 60.1973ZM221.362 62.877C221.845 62.877 222.285 62.9681 222.682 63.1504C223.078 63.3281 223.415 63.5788 223.693 63.9023C223.976 64.2214 224.195 64.6042 224.35 65.0508C224.505 65.4928 224.582 65.9805 224.582 66.5137C224.582 67.0378 224.505 67.5231 224.35 67.9697C224.195 68.4118 223.976 68.7946 223.693 69.1182C223.415 69.4372 223.078 69.6878 222.682 69.8701C222.285 70.0479 221.845 70.1367 221.362 70.1367C220.879 70.1367 220.439 70.0479 220.043 69.8701C219.651 69.6878 219.314 69.4372 219.031 69.1182C218.749 68.7946 218.53 68.4118 218.375 67.9697C218.22 67.5231 218.143 67.0378 218.143 66.5137C218.143 65.9805 218.22 65.4928 218.375 65.0508C218.53 64.6042 218.749 64.2214 219.031 63.9023C219.314 63.5788 219.651 63.3281 220.043 63.1504C220.439 62.9681 220.879 62.877 221.362 62.877ZM221.362 69.1318C221.695 69.1318 221.987 69.0635 222.237 68.9268C222.493 68.7855 222.704 68.5964 222.873 68.3594C223.046 68.1224 223.176 67.849 223.263 67.5391C223.349 67.2246 223.393 66.8965 223.393 66.5547V66.4727C223.393 66.1217 223.349 65.7891 223.263 65.4746C223.176 65.1602 223.046 64.8867 222.873 64.6543C222.704 64.4173 222.493 64.2305 222.237 64.0938C221.987 63.9525 221.695 63.8818 221.362 63.8818C221.03 63.8818 220.736 63.9525 220.48 64.0938C220.23 64.2305 220.018 64.4173 219.845 64.6543C219.676 64.8867 219.549 65.1602 219.462 65.4746C219.375 65.7891 219.332 66.1217 219.332 66.4727V66.5547C219.332 66.8965 219.375 67.2246 219.462 67.5391C219.549 67.849 219.676 68.1224 219.845 68.3594C220.018 68.5964 220.23 68.7855 220.48 68.9268C220.736 69.0635 221.03 69.1318 221.362 69.1318ZM230.864 69.2002C230.659 69.4873 230.379 69.7152 230.023 69.8838C229.673 70.0524 229.271 70.1367 228.82 70.1367C228.369 70.1367 227.961 70.0479 227.597 69.8701C227.232 69.6878 226.92 69.4372 226.66 69.1182C226.4 68.7946 226.2 68.4118 226.059 67.9697C225.922 67.5277 225.854 67.0423 225.854 66.5137C225.854 65.985 225.922 65.4997 226.059 65.0576C226.2 64.611 226.4 64.2259 226.66 63.9023C226.92 63.5788 227.232 63.3281 227.597 63.1504C227.961 62.9681 228.369 62.877 228.82 62.877C229.271 62.877 229.673 62.9613 230.023 63.1299C230.379 63.2985 230.659 63.5264 230.864 63.8135V60.1973H232.013V70H230.864V69.2002ZM227.043 66.541C227.043 66.9056 227.086 67.2451 227.173 67.5596C227.259 67.874 227.387 68.1475 227.556 68.3799C227.724 68.6077 227.932 68.7878 228.178 68.9199C228.424 69.0521 228.709 69.1182 229.032 69.1182C229.338 69.1182 229.604 69.0658 229.832 68.9609C230.064 68.8561 230.258 68.7126 230.413 68.5303C230.568 68.348 230.684 68.1338 230.762 67.8877C230.839 67.637 230.878 67.3659 230.878 67.0742V65.9395C230.878 65.6478 230.839 65.3789 230.762 65.1328C230.684 64.8822 230.568 64.6657 230.413 64.4834C230.258 64.3011 230.064 64.1576 229.832 64.0527C229.604 63.9479 229.338 63.8955 229.032 63.8955C228.709 63.8955 228.424 63.9616 228.178 64.0938C227.932 64.2259 227.724 64.4082 227.556 64.6406C227.387 64.8685 227.259 65.1396 227.173 65.4541C227.086 65.7686 227.043 66.1081 227.043 66.4727V66.541ZM234.904 66.8623C234.927 67.1904 234.993 67.4935 235.103 67.7715C235.212 68.0495 235.36 68.291 235.547 68.4961C235.738 68.6966 235.962 68.8538 236.217 68.9678C236.477 69.0771 236.764 69.1318 237.078 69.1318C237.465 69.1318 237.805 69.068 238.097 68.9404C238.393 68.8083 238.664 68.6442 238.91 68.4482L239.498 69.2754C239.184 69.526 238.819 69.7334 238.404 69.8975C237.994 70.057 237.534 70.1367 237.023 70.1367C236.518 70.1367 236.06 70.0479 235.649 69.8701C235.239 69.6878 234.888 69.4372 234.597 69.1182C234.31 68.7946 234.089 68.4118 233.934 67.9697C233.779 67.5231 233.701 67.0378 233.701 66.5137C233.701 65.9805 233.776 65.4928 233.927 65.0508C234.082 64.6042 234.298 64.2214 234.576 63.9023C234.854 63.5788 235.187 63.3281 235.574 63.1504C235.962 62.9681 236.392 62.877 236.866 62.877C237.326 62.877 237.741 62.9681 238.11 63.1504C238.479 63.3281 238.794 63.5788 239.054 63.9023C239.313 64.2214 239.512 64.6042 239.648 65.0508C239.79 65.4928 239.86 65.9759 239.86 66.5V66.8623H234.904ZM236.825 63.8818C236.534 63.8818 236.274 63.9388 236.046 64.0527C235.818 64.1667 235.622 64.3193 235.458 64.5107C235.299 64.7021 235.171 64.9232 235.075 65.1738C234.984 65.4199 234.932 65.6751 234.918 65.9395H238.616C238.607 65.6706 238.559 65.4131 238.473 65.167C238.391 64.9163 238.272 64.6976 238.117 64.5107C237.967 64.3193 237.782 64.1667 237.563 64.0527C237.349 63.9388 237.103 63.8818 236.825 63.8818ZM245.035 64.0391H244.851C244.554 64.0391 244.272 64.0732 244.003 64.1416C243.734 64.21 243.497 64.333 243.292 64.5107C243.087 64.6885 242.923 64.9323 242.8 65.2422C242.677 65.5475 242.615 65.9395 242.615 66.418V70H241.467V63.0137H242.615V64.1211C242.702 63.916 242.818 63.736 242.964 63.5811C243.11 63.4261 243.274 63.2985 243.456 63.1982C243.643 63.0934 243.841 63.016 244.051 62.9658C244.265 62.9157 244.481 62.8906 244.7 62.8906H245.035V64.0391ZM250.36 69.3027C250.155 69.5397 249.877 69.738 249.526 69.8975C249.18 70.057 248.772 70.1367 248.303 70.1367C247.956 70.1367 247.635 70.0889 247.339 69.9932C247.043 69.8929 246.785 69.7516 246.566 69.5693C246.348 69.387 246.177 69.166 246.054 68.9062C245.931 68.6465 245.869 68.3525 245.869 68.0244C245.869 67.751 245.912 67.5026 245.999 67.2793C246.09 67.0514 246.215 66.8532 246.375 66.6846C246.539 66.516 246.735 66.3792 246.963 66.2744C247.191 66.165 247.446 66.0898 247.729 66.0488L250.196 65.7139V65.2695C250.196 65.0052 250.155 64.7842 250.073 64.6064C249.991 64.4242 249.88 64.2806 249.738 64.1758C249.602 64.071 249.438 63.9958 249.246 63.9502C249.059 63.9046 248.856 63.8818 248.638 63.8818C248.246 63.8818 247.879 63.9365 247.537 64.0459C247.2 64.1553 246.895 64.2829 246.621 64.4287L246.19 63.5195C246.591 63.2917 247.011 63.1276 247.448 63.0273C247.89 62.9271 248.326 62.877 248.754 62.877C249.606 62.877 250.251 63.0706 250.688 63.458C251.126 63.8408 251.345 64.4014 251.345 65.1396V68.3594C251.345 68.5918 251.39 68.7878 251.481 68.9473C251.573 69.1022 251.718 69.2253 251.919 69.3164L251.27 70.1367C251.051 70.082 250.862 69.9863 250.702 69.8496C250.547 69.7083 250.438 69.5397 250.374 69.3438L250.36 69.3027ZM248.316 66.8896C248.125 66.917 247.95 66.9557 247.79 67.0059C247.635 67.056 247.503 67.1243 247.394 67.2109C247.284 67.293 247.198 67.3955 247.134 67.5186C247.075 67.6416 247.045 67.792 247.045 67.9697C247.045 68.1748 247.084 68.3571 247.161 68.5166C247.239 68.6761 247.343 68.8105 247.476 68.9199C247.608 69.0293 247.76 69.1136 247.934 69.1729C248.111 69.2275 248.296 69.2549 248.487 69.2549C248.701 69.2549 248.911 69.2253 249.116 69.166C249.321 69.1068 249.504 69.0225 249.663 68.9131C249.823 68.7992 249.95 68.6624 250.046 68.5029C250.146 68.3434 250.196 68.1611 250.196 67.9561V66.6094L248.316 66.8896ZM255.234 68.2637C255.234 68.3822 255.241 68.4938 255.255 68.5986C255.273 68.6989 255.312 68.7878 255.371 68.8652C255.435 68.9427 255.526 69.0042 255.645 69.0498C255.763 69.0954 255.925 69.1182 256.13 69.1182C256.185 69.1182 256.248 69.1159 256.321 69.1113C256.399 69.1068 256.479 69.1022 256.561 69.0977C256.643 69.0885 256.722 69.0794 256.8 69.0703C256.877 69.0566 256.943 69.0452 256.998 69.0361L257.121 70.041C256.989 70.0592 256.852 70.0752 256.711 70.0889C256.592 70.1025 256.46 70.1139 256.314 70.123C256.169 70.1322 256.023 70.1367 255.877 70.1367C255.599 70.1367 255.348 70.1071 255.125 70.0479C254.906 69.9932 254.719 69.902 254.564 69.7744C254.41 69.6468 254.291 69.4805 254.209 69.2754C254.127 69.0658 254.086 68.8128 254.086 68.5166V64.0254H252.767V63.0137H254.086V60.7305L255.234 60.3271V63.0137H257.176V64.0254H255.234V68.2637ZM259.377 66.8623C259.4 67.1904 259.466 67.4935 259.575 67.7715C259.685 68.0495 259.833 68.291 260.02 68.4961C260.211 68.6966 260.434 68.8538 260.689 68.9678C260.949 69.0771 261.236 69.1318 261.551 69.1318C261.938 69.1318 262.278 69.068 262.569 68.9404C262.866 68.8083 263.137 68.6442 263.383 68.4482L263.971 69.2754C263.656 69.526 263.292 69.7334 262.877 69.8975C262.467 70.057 262.007 70.1367 261.496 70.1367C260.99 70.1367 260.532 70.0479 260.122 69.8701C259.712 69.6878 259.361 69.4372 259.069 69.1182C258.782 68.7946 258.561 68.4118 258.406 67.9697C258.251 67.5231 258.174 67.0378 258.174 66.5137C258.174 65.9805 258.249 65.4928 258.399 65.0508C258.554 64.6042 258.771 64.2214 259.049 63.9023C259.327 63.5788 259.66 63.3281 260.047 63.1504C260.434 62.9681 260.865 62.877 261.339 62.877C261.799 62.877 262.214 62.9681 262.583 63.1504C262.952 63.3281 263.267 63.5788 263.526 63.9023C263.786 64.2214 263.984 64.6042 264.121 65.0508C264.262 65.4928 264.333 65.9759 264.333 66.5V66.8623H259.377ZM261.298 63.8818C261.006 63.8818 260.746 63.9388 260.519 64.0527C260.291 64.1667 260.095 64.3193 259.931 64.5107C259.771 64.7021 259.644 64.9232 259.548 65.1738C259.457 65.4199 259.404 65.6751 259.391 65.9395H263.089C263.08 65.6706 263.032 65.4131 262.945 65.167C262.863 64.9163 262.745 64.6976 262.59 64.5107C262.439 64.3193 262.255 64.1667 262.036 64.0527C261.822 63.9388 261.576 63.8818 261.298 63.8818ZM268.694 60.1973H269.843V68.4346C269.843 68.5485 269.852 68.6488 269.87 68.7354C269.893 68.8219 269.929 68.8949 269.979 68.9541C270.03 69.0133 270.098 69.0589 270.185 69.0908C270.276 69.1182 270.387 69.1318 270.52 69.1318C270.665 69.1318 270.798 69.1273 270.916 69.1182C271.035 69.109 271.139 69.0999 271.23 69.0908L271.347 70.0547C271.215 70.0684 271.082 70.082 270.95 70.0957C270.836 70.1048 270.711 70.1139 270.574 70.123C270.438 70.1322 270.308 70.1367 270.185 70.1367C269.979 70.1367 269.786 70.1117 269.604 70.0615C269.421 70.016 269.262 69.9385 269.125 69.8291C268.993 69.7197 268.888 69.5785 268.811 69.4053C268.733 69.2321 268.694 69.0202 268.694 68.7695V60.1973ZM273.227 66.8623C273.249 67.1904 273.315 67.4935 273.425 67.7715C273.534 68.0495 273.682 68.291 273.869 68.4961C274.061 68.6966 274.284 68.8538 274.539 68.9678C274.799 69.0771 275.086 69.1318 275.4 69.1318C275.788 69.1318 276.127 69.068 276.419 68.9404C276.715 68.8083 276.986 68.6442 277.232 68.4482L277.82 69.2754C277.506 69.526 277.141 69.7334 276.727 69.8975C276.316 70.057 275.856 70.1367 275.346 70.1367C274.84 70.1367 274.382 70.0479 273.972 69.8701C273.562 69.6878 273.211 69.4372 272.919 69.1182C272.632 68.7946 272.411 68.4118 272.256 67.9697C272.101 67.5231 272.023 67.0378 272.023 66.5137C272.023 65.9805 272.099 65.4928 272.249 65.0508C272.404 64.6042 272.62 64.2214 272.898 63.9023C273.176 63.5788 273.509 63.3281 273.896 63.1504C274.284 62.9681 274.715 62.877 275.188 62.877C275.649 62.877 276.063 62.9681 276.433 63.1504C276.802 63.3281 277.116 63.5788 277.376 63.9023C277.636 64.2214 277.834 64.6042 277.971 65.0508C278.112 65.4928 278.183 65.9759 278.183 66.5V66.8623H273.227ZM275.147 63.8818C274.856 63.8818 274.596 63.9388 274.368 64.0527C274.14 64.1667 273.944 64.3193 273.78 64.5107C273.621 64.7021 273.493 64.9232 273.397 65.1738C273.306 65.4199 273.254 65.6751 273.24 65.9395H276.938C276.929 65.6706 276.882 65.4131 276.795 65.167C276.713 64.9163 276.594 64.6976 276.439 64.5107C276.289 64.3193 276.104 64.1667 275.886 64.0527C275.672 63.9388 275.425 63.8818 275.147 63.8818ZM281.19 70L278.976 63.0137H280.281L281.956 68.9336L283.624 63.0137H284.93L282.715 70H281.19ZM286.967 66.8623C286.99 67.1904 287.056 67.4935 287.165 67.7715C287.274 68.0495 287.423 68.291 287.609 68.4961C287.801 68.6966 288.024 68.8538 288.279 68.9678C288.539 69.0771 288.826 69.1318 289.141 69.1318C289.528 69.1318 289.868 69.068 290.159 68.9404C290.455 68.8083 290.727 68.6442 290.973 68.4482L291.561 69.2754C291.246 69.526 290.882 69.7334 290.467 69.8975C290.057 70.057 289.596 70.1367 289.086 70.1367C288.58 70.1367 288.122 70.0479 287.712 69.8701C287.302 69.6878 286.951 69.4372 286.659 69.1182C286.372 68.7946 286.151 68.4118 285.996 67.9697C285.841 67.5231 285.764 67.0378 285.764 66.5137C285.764 65.9805 285.839 65.4928 285.989 65.0508C286.144 64.6042 286.361 64.2214 286.639 63.9023C286.917 63.5788 287.249 63.3281 287.637 63.1504C288.024 62.9681 288.455 62.877 288.929 62.877C289.389 62.877 289.804 62.9681 290.173 63.1504C290.542 63.3281 290.856 63.5788 291.116 63.9023C291.376 64.2214 291.574 64.6042 291.711 65.0508C291.852 65.4928 291.923 65.9759 291.923 66.5V66.8623H286.967ZM288.888 63.8818C288.596 63.8818 288.336 63.9388 288.108 64.0527C287.881 64.1667 287.685 64.3193 287.521 64.5107C287.361 64.7021 287.233 64.9232 287.138 65.1738C287.047 65.4199 286.994 65.6751 286.98 65.9395H290.679C290.67 65.6706 290.622 65.4131 290.535 65.167C290.453 64.9163 290.335 64.6976 290.18 64.5107C290.029 64.3193 289.845 64.1667 289.626 64.0527C289.412 63.9388 289.166 63.8818 288.888 63.8818ZM293.481 60.1973H294.63V68.4346C294.63 68.5485 294.639 68.6488 294.657 68.7354C294.68 68.8219 294.716 68.8949 294.767 68.9541C294.817 69.0133 294.885 69.0589 294.972 69.0908C295.063 69.1182 295.174 69.1318 295.307 69.1318C295.452 69.1318 295.585 69.1273 295.703 69.1182C295.822 69.109 295.926 69.0999 296.018 69.0908L296.134 70.0547C296.002 70.0684 295.869 70.082 295.737 70.0957C295.623 70.1048 295.498 70.1139 295.361 70.123C295.225 70.1322 295.095 70.1367 294.972 70.1367C294.767 70.1367 294.573 70.1117 294.391 70.0615C294.208 70.016 294.049 69.9385 293.912 69.8291C293.78 69.7197 293.675 69.5785 293.598 69.4053C293.52 69.2321 293.481 69.0202 293.481 68.7695V60.1973ZM301.91 68.0654C301.91 68.3936 301.837 68.6875 301.691 68.9473C301.55 69.2025 301.361 69.4189 301.124 69.5967C300.887 69.7744 300.614 69.9089 300.304 70C299.998 70.0911 299.684 70.1367 299.36 70.1367C298.85 70.1367 298.358 70.0501 297.884 69.877C297.414 69.6992 296.997 69.4463 296.633 69.1182L297.262 68.3047C297.371 68.4004 297.496 68.5007 297.638 68.6055C297.784 68.7103 297.945 68.8083 298.123 68.8994C298.301 68.986 298.492 69.0589 298.697 69.1182C298.902 69.1729 299.119 69.2002 299.347 69.2002C299.534 69.2002 299.711 69.1774 299.88 69.1318C300.053 69.0817 300.203 69.0111 300.331 68.9199C300.459 68.8242 300.559 68.7126 300.632 68.585C300.709 68.4528 300.748 68.3047 300.748 68.1406C300.748 67.9583 300.707 67.8057 300.625 67.6826C300.548 67.5596 300.44 67.4548 300.304 67.3682C300.167 67.2816 300.007 67.2064 299.825 67.1426C299.643 67.0788 299.451 67.015 299.251 66.9512L298.813 66.8076C298.567 66.7256 298.33 66.6322 298.103 66.5273C297.875 66.4225 297.672 66.2949 297.494 66.1445C297.321 65.9896 297.182 65.8073 297.077 65.5977C296.977 65.388 296.927 65.1374 296.927 64.8457C296.927 64.6087 296.977 64.374 297.077 64.1416C297.177 63.9046 297.33 63.6927 297.535 63.5059C297.745 63.319 298.009 63.1686 298.328 63.0547C298.647 62.9362 299.023 62.877 299.456 62.877C299.935 62.877 300.377 62.9567 300.782 63.1162C301.192 63.2757 301.539 63.474 301.821 63.7109L301.22 64.5381C301.119 64.4424 301.001 64.3512 300.864 64.2646C300.728 64.1781 300.582 64.1029 300.427 64.0391C300.272 63.9707 300.11 63.916 299.941 63.875C299.773 63.834 299.606 63.8135 299.442 63.8135C299.192 63.8135 298.98 63.8431 298.807 63.9023C298.633 63.957 298.494 64.0299 298.39 64.1211C298.285 64.2122 298.207 64.3148 298.157 64.4287C298.112 64.5426 298.089 64.6543 298.089 64.7637C298.089 64.9232 298.123 65.0576 298.191 65.167C298.26 65.2718 298.349 65.363 298.458 65.4404C298.572 65.5179 298.7 65.584 298.841 65.6387C298.987 65.6934 299.137 65.748 299.292 65.8027L299.866 65.9941C300.14 66.0853 300.39 66.1833 300.618 66.2881C300.846 66.3883 301.047 66.5046 301.22 66.6367C301.438 66.8099 301.607 67.0104 301.726 67.2383C301.849 67.4661 301.91 67.7419 301.91 68.0654ZM307.987 68.9473H312.875V70H306.347V68.8516C306.971 68.4323 307.534 68.0449 308.035 67.6895C308.536 67.334 308.979 66.999 309.361 66.6846C309.744 66.3656 310.072 66.0625 310.346 65.7754C310.624 65.4883 310.852 65.2035 311.029 64.9209C311.207 64.6383 311.337 64.3535 311.419 64.0664C311.501 63.7793 311.542 63.4762 311.542 63.1572C311.542 62.8838 311.494 62.624 311.398 62.3779C311.307 62.1318 311.173 61.9176 310.995 61.7354C310.822 61.5485 310.605 61.4004 310.346 61.291C310.09 61.1816 309.799 61.127 309.471 61.127C309.206 61.127 308.951 61.1657 308.705 61.2432C308.464 61.3161 308.247 61.4346 308.056 61.5986C307.869 61.7627 307.716 61.9746 307.598 62.2344C307.479 62.4896 307.413 62.7972 307.399 63.1572L306.265 63.0273C306.283 62.5716 306.372 62.1615 306.531 61.7969C306.691 61.4323 306.91 61.1224 307.188 60.8672C307.47 60.612 307.805 60.416 308.192 60.2793C308.584 60.1426 309.02 60.0742 309.498 60.0742C309.963 60.0742 310.394 60.1517 310.79 60.3066C311.191 60.457 311.537 60.6689 311.829 60.9424C312.125 61.2158 312.355 61.5394 312.52 61.9131C312.688 62.2868 312.772 62.6947 312.772 63.1367C312.772 63.6608 312.681 64.153 312.499 64.6133C312.321 65.0736 312.048 65.527 311.679 65.9736C311.31 66.4157 310.84 66.8623 310.271 67.3135C309.705 67.7646 309.038 68.2409 308.268 68.7422L307.987 68.9199V68.9473ZM318.159 69.0771C318.478 69.0771 318.774 68.9928 319.048 68.8242C319.326 68.6556 319.563 68.4141 319.759 68.0996C319.959 67.7806 320.117 67.391 320.23 66.9307C320.344 66.4658 320.401 65.9395 320.401 65.3516V64.8594C320.401 64.2715 320.344 63.7474 320.23 63.2871C320.117 62.8268 319.959 62.4372 319.759 62.1182C319.563 61.7992 319.326 61.5576 319.048 61.3936C318.774 61.2249 318.478 61.1406 318.159 61.1406C317.836 61.1406 317.537 61.2249 317.264 61.3936C316.99 61.5576 316.753 61.7992 316.553 62.1182C316.357 62.4372 316.202 62.8268 316.088 63.2871C315.974 63.7474 315.917 64.2715 315.917 64.8594V65.3516C315.917 65.9395 315.974 66.4658 316.088 66.9307C316.202 67.391 316.357 67.7806 316.553 68.0996C316.753 68.4141 316.99 68.6556 317.264 68.8242C317.537 68.9928 317.836 69.0771 318.159 69.0771ZM318.159 60.0742C318.578 60.0742 318.957 60.1403 319.294 60.2725C319.631 60.4046 319.927 60.5869 320.183 60.8193C320.442 61.0472 320.663 61.3206 320.846 61.6396C321.033 61.9587 321.185 62.305 321.304 62.6787C321.422 63.0479 321.509 63.4398 321.563 63.8545C321.618 64.2692 321.646 64.6885 321.646 65.1123C321.646 65.5361 321.618 65.9554 321.563 66.3701C321.509 66.7803 321.422 67.1722 321.304 67.5459C321.185 67.915 321.033 68.2591 320.846 68.5781C320.663 68.8926 320.442 69.166 320.183 69.3984C319.927 69.6309 319.631 69.8132 319.294 69.9453C318.957 70.0729 318.578 70.1367 318.159 70.1367C317.74 70.1367 317.362 70.0729 317.024 69.9453C316.687 69.8132 316.389 69.6309 316.129 69.3984C315.874 69.166 315.653 68.8926 315.466 68.5781C315.284 68.2591 315.133 67.915 315.015 67.5459C314.896 67.1722 314.81 66.7803 314.755 66.3701C314.7 65.9554 314.673 65.5361 314.673 65.1123C314.673 64.6885 314.7 64.2692 314.755 63.8545C314.81 63.4398 314.896 63.0479 315.015 62.6787C315.133 62.305 315.284 61.9587 315.466 61.6396C315.653 61.3206 315.874 61.0472 316.129 60.8193C316.389 60.5869 316.687 60.4046 317.024 60.2725C317.362 60.1403 317.74 60.0742 318.159 60.0742ZM323.409 61.7832C323.728 61.7832 323.988 61.7581 324.188 61.708C324.389 61.6533 324.544 61.569 324.653 61.4551C324.763 61.3411 324.836 61.1953 324.872 61.0176C324.913 60.8353 324.934 60.6143 324.934 60.3545V60.1973H326.096V70H324.893V62.8018H322.985V61.7832H323.409ZM333.096 68.2637C333.096 68.3822 333.103 68.4938 333.116 68.5986C333.134 68.6989 333.173 68.7878 333.232 68.8652C333.296 68.9427 333.387 69.0042 333.506 69.0498C333.624 69.0954 333.786 69.1182 333.991 69.1182C334.046 69.1182 334.11 69.1159 334.183 69.1113C334.26 69.1068 334.34 69.1022 334.422 69.0977C334.504 69.0885 334.584 69.0794 334.661 69.0703C334.739 69.0566 334.805 69.0452 334.859 69.0361L334.982 70.041C334.85 70.0592 334.714 70.0752 334.572 70.0889C334.454 70.1025 334.322 70.1139 334.176 70.123C334.03 70.1322 333.884 70.1367 333.738 70.1367C333.46 70.1367 333.21 70.1071 332.986 70.0479C332.768 69.9932 332.581 69.902 332.426 69.7744C332.271 69.6468 332.152 69.4805 332.07 69.2754C331.988 69.0658 331.947 68.8128 331.947 68.5166V64.0254H330.628V63.0137H331.947V60.7305L333.096 60.3271V63.0137H335.037V64.0254H333.096V68.2637ZM339.255 62.877C339.738 62.877 340.178 62.9681 340.574 63.1504C340.971 63.3281 341.308 63.5788 341.586 63.9023C341.868 64.2214 342.087 64.6042 342.242 65.0508C342.397 65.4928 342.475 65.9805 342.475 66.5137C342.475 67.0378 342.397 67.5231 342.242 67.9697C342.087 68.4118 341.868 68.7946 341.586 69.1182C341.308 69.4372 340.971 69.6878 340.574 69.8701C340.178 70.0479 339.738 70.1367 339.255 70.1367C338.772 70.1367 338.332 70.0479 337.936 69.8701C337.544 69.6878 337.206 69.4372 336.924 69.1182C336.641 68.7946 336.423 68.4118 336.268 67.9697C336.113 67.5231 336.035 67.0378 336.035 66.5137C336.035 65.9805 336.113 65.4928 336.268 65.0508C336.423 64.6042 336.641 64.2214 336.924 63.9023C337.206 63.5788 337.544 63.3281 337.936 63.1504C338.332 62.9681 338.772 62.877 339.255 62.877ZM339.255 69.1318C339.588 69.1318 339.879 69.0635 340.13 68.9268C340.385 68.7855 340.597 68.5964 340.766 68.3594C340.939 68.1224 341.069 67.849 341.155 67.5391C341.242 67.2246 341.285 66.8965 341.285 66.5547V66.4727C341.285 66.1217 341.242 65.7891 341.155 65.4746C341.069 65.1602 340.939 64.8867 340.766 64.6543C340.597 64.4173 340.385 64.2305 340.13 64.0938C339.879 63.9525 339.588 63.8818 339.255 63.8818C338.922 63.8818 338.628 63.9525 338.373 64.0938C338.122 64.2305 337.91 64.4173 337.737 64.6543C337.569 64.8867 337.441 65.1602 337.354 65.4746C337.268 65.7891 337.225 66.1217 337.225 66.4727V66.5547C337.225 66.8965 337.268 67.2246 337.354 67.5391C337.441 67.849 337.569 68.1224 337.737 68.3594C337.91 68.5964 338.122 68.7855 338.373 68.9268C338.628 69.0635 338.922 69.1318 339.255 69.1318ZM351.396 66.459V61.2363L347.615 66.459H351.396ZM351.396 70V67.4639H346.467V66.2744L350.903 60.1973H352.599V66.459H354.205V67.4639H352.599V70H351.396ZM359.161 69.0771C359.48 69.0771 359.776 68.9928 360.05 68.8242C360.328 68.6556 360.565 68.4141 360.761 68.0996C360.961 67.7806 361.118 67.391 361.232 66.9307C361.346 66.4658 361.403 65.9395 361.403 65.3516V64.8594C361.403 64.2715 361.346 63.7474 361.232 63.2871C361.118 62.8268 360.961 62.4372 360.761 62.1182C360.565 61.7992 360.328 61.5576 360.05 61.3936C359.776 61.2249 359.48 61.1406 359.161 61.1406C358.838 61.1406 358.539 61.2249 358.266 61.3936C357.992 61.5576 357.755 61.7992 357.555 62.1182C357.359 62.4372 357.204 62.8268 357.09 63.2871C356.976 63.7474 356.919 64.2715 356.919 64.8594V65.3516C356.919 65.9395 356.976 66.4658 357.09 66.9307C357.204 67.391 357.359 67.7806 357.555 68.0996C357.755 68.4141 357.992 68.6556 358.266 68.8242C358.539 68.9928 358.838 69.0771 359.161 69.0771ZM359.161 60.0742C359.58 60.0742 359.959 60.1403 360.296 60.2725C360.633 60.4046 360.929 60.5869 361.185 60.8193C361.444 61.0472 361.665 61.3206 361.848 61.6396C362.035 61.9587 362.187 62.305 362.306 62.6787C362.424 63.0479 362.511 63.4398 362.565 63.8545C362.62 64.2692 362.647 64.6885 362.647 65.1123C362.647 65.5361 362.62 65.9554 362.565 66.3701C362.511 66.7803 362.424 67.1722 362.306 67.5459C362.187 67.915 362.035 68.2591 361.848 68.5781C361.665 68.8926 361.444 69.166 361.185 69.3984C360.929 69.6309 360.633 69.8132 360.296 69.9453C359.959 70.0729 359.58 70.1367 359.161 70.1367C358.742 70.1367 358.364 70.0729 358.026 69.9453C357.689 69.8132 357.391 69.6309 357.131 69.3984C356.876 69.166 356.655 68.8926 356.468 68.5781C356.285 68.2591 356.135 67.915 356.017 67.5459C355.898 67.1722 355.812 66.7803 355.757 66.3701C355.702 65.9554 355.675 65.5361 355.675 65.1123C355.675 64.6885 355.702 64.2692 355.757 63.8545C355.812 63.4398 355.898 63.0479 356.017 62.6787C356.135 62.305 356.285 61.9587 356.468 61.6396C356.655 61.3206 356.876 61.0472 357.131 60.8193C357.391 60.5869 357.689 60.4046 358.026 60.2725C358.364 60.1403 358.742 60.0742 359.161 60.0742ZM367.952 69.0771C368.271 69.0771 368.567 68.9928 368.841 68.8242C369.119 68.6556 369.356 68.4141 369.552 68.0996C369.752 67.7806 369.91 67.391 370.023 66.9307C370.137 66.4658 370.194 65.9395 370.194 65.3516V64.8594C370.194 64.2715 370.137 63.7474 370.023 63.2871C369.91 62.8268 369.752 62.4372 369.552 62.1182C369.356 61.7992 369.119 61.5576 368.841 61.3936C368.567 61.2249 368.271 61.1406 367.952 61.1406C367.629 61.1406 367.33 61.2249 367.057 61.3936C366.783 61.5576 366.546 61.7992 366.346 62.1182C366.15 62.4372 365.995 62.8268 365.881 63.2871C365.767 63.7474 365.71 64.2715 365.71 64.8594V65.3516C365.71 65.9395 365.767 66.4658 365.881 66.9307C365.995 67.391 366.15 67.7806 366.346 68.0996C366.546 68.4141 366.783 68.6556 367.057 68.8242C367.33 68.9928 367.629 69.0771 367.952 69.0771ZM367.952 60.0742C368.371 60.0742 368.75 60.1403 369.087 60.2725C369.424 60.4046 369.72 60.5869 369.976 60.8193C370.235 61.0472 370.456 61.3206 370.639 61.6396C370.826 61.9587 370.978 62.305 371.097 62.6787C371.215 63.0479 371.302 63.4398 371.356 63.8545C371.411 64.2692 371.438 64.6885 371.438 65.1123C371.438 65.5361 371.411 65.9554 371.356 66.3701C371.302 66.7803 371.215 67.1722 371.097 67.5459C370.978 67.915 370.826 68.2591 370.639 68.5781C370.456 68.8926 370.235 69.166 369.976 69.3984C369.72 69.6309 369.424 69.8132 369.087 69.9453C368.75 70.0729 368.371 70.1367 367.952 70.1367C367.533 70.1367 367.155 70.0729 366.817 69.9453C366.48 69.8132 366.182 69.6309 365.922 69.3984C365.667 69.166 365.446 68.8926 365.259 68.5781C365.076 68.2591 364.926 67.915 364.808 67.5459C364.689 67.1722 364.603 66.7803 364.548 66.3701C364.493 65.9554 364.466 65.5361 364.466 65.1123C364.466 64.6885 364.493 64.2692 364.548 63.8545C364.603 63.4398 364.689 63.0479 364.808 62.6787C364.926 62.305 365.076 61.9587 365.259 61.6396C365.446 61.3206 365.667 61.0472 365.922 60.8193C366.182 60.5869 366.48 60.4046 366.817 60.2725C367.155 60.1403 367.533 60.0742 367.952 60.0742ZM376.34 73.36V62.496H377.572V67.34C377.572 67.9187 377.717 68.362 378.006 68.67C378.296 68.9687 378.72 69.118 379.28 69.118C379.794 69.118 380.2 69.0153 380.498 68.81C380.806 68.5953 381.03 68.2873 381.17 67.886C381.31 67.4753 381.38 66.9807 381.38 66.402V62.496H382.612V68.348C382.612 68.6373 382.668 68.8427 382.78 68.964C382.892 69.076 383.028 69.132 383.186 69.132C383.261 69.132 383.34 69.1227 383.424 69.104C383.508 69.0853 383.569 69.0713 383.606 69.062V69.958C383.56 69.986 383.494 70.014 383.41 70.042C383.326 70.07 383.233 70.0933 383.13 70.112C383.028 70.1307 382.925 70.14 382.822 70.14C382.477 70.14 382.188 70.056 381.954 69.888C381.73 69.72 381.567 69.4213 381.464 68.992H381.366C381.208 69.2347 381.026 69.4447 380.82 69.622C380.624 69.79 380.391 69.916 380.12 70C379.859 70.0933 379.551 70.14 379.196 70.14C378.954 70.14 378.73 70.112 378.524 70.056C378.328 70.0093 378.146 69.9393 377.978 69.846C377.82 69.7433 377.68 69.6313 377.558 69.51H377.502C377.521 69.622 377.535 69.762 377.544 69.93C377.554 70.0887 377.558 70.2707 377.558 70.476C377.568 70.6907 377.572 70.924 377.572 71.176V73.36H376.34ZM384.57 66.124C384.57 65.6637 384.636 65.2354 384.769 64.8389C384.901 64.4424 385.09 64.1006 385.336 63.8135C385.582 63.5218 385.878 63.2939 386.225 63.1299C386.576 62.9613 386.967 62.877 387.4 62.877C387.783 62.877 388.148 62.9521 388.494 63.1025C388.84 63.2484 389.134 63.4854 389.376 63.8135V63.0137H390.524V70C390.524 70.4329 390.436 70.7952 390.258 71.0869C390.085 71.3831 389.857 71.6201 389.574 71.7979C389.292 71.9756 388.97 72.1032 388.61 72.1807C388.255 72.2581 387.893 72.2969 387.523 72.2969C387.318 72.2969 387.104 72.2855 386.881 72.2627C386.662 72.2399 386.441 72.2057 386.218 72.1602C385.994 72.1146 385.773 72.0553 385.555 71.9824C385.34 71.9141 385.135 71.832 384.939 71.7363L385.356 70.7725C385.493 70.8363 385.637 70.8978 385.787 70.957C385.938 71.0208 386.099 71.0778 386.272 71.1279C386.45 71.1781 386.639 71.2191 386.84 71.251C387.04 71.2829 387.259 71.2988 387.496 71.2988C387.788 71.2988 388.05 71.2692 388.282 71.21C388.519 71.1507 388.717 71.0573 388.877 70.9297C389.036 70.8066 389.16 70.6471 389.246 70.4512C389.333 70.2598 389.376 70.0296 389.376 69.7607V68.4346C389.134 68.7627 388.84 69.002 388.494 69.1523C388.148 69.2982 387.783 69.3711 387.4 69.3711C386.967 69.3711 386.576 69.2891 386.225 69.125C385.878 68.9564 385.582 68.7262 385.336 68.4346C385.09 68.1429 384.901 67.8011 384.769 67.4092C384.636 67.0127 384.57 66.5843 384.57 66.124ZM389.403 66.0967C389.403 65.7822 389.369 65.4928 389.301 65.2285C389.232 64.9596 389.125 64.7272 388.979 64.5312C388.834 64.3307 388.647 64.1758 388.419 64.0664C388.196 63.9525 387.927 63.8955 387.612 63.8955C387.293 63.8955 387.018 63.9525 386.785 64.0664C386.553 64.1803 386.359 64.3376 386.204 64.5381C386.054 64.734 385.942 64.9665 385.869 65.2354C385.796 65.5042 385.76 65.7913 385.76 66.0967V66.1514C385.76 66.4567 385.796 66.7438 385.869 67.0127C385.942 67.277 386.054 67.5094 386.204 67.71C386.359 67.9059 386.553 68.0609 386.785 68.1748C387.018 68.2887 387.293 68.3457 387.612 68.3457C387.927 68.3457 388.196 68.291 388.419 68.1816C388.647 68.0677 388.834 67.9128 388.979 67.7168C389.125 67.5208 389.232 67.2884 389.301 67.0195C389.369 66.7507 389.403 66.4613 389.403 66.1514V66.0967ZM395.487 60.1973H396.663L393.238 70H392.049L395.487 60.1973ZM398.926 70V63.168H399.976L400.102 64.274H400.13C400.802 63.574 401.6 63 402.496 63C403.658 63 404.302 63.532 404.61 64.442C405.408 63.588 406.178 63 407.116 63C408.684 63 409.426 64.036 409.426 65.968V70H408.166V66.136C408.166 64.708 407.704 64.092 406.724 64.092C406.15 64.092 405.52 64.484 404.806 65.268V70H403.546V66.136C403.546 64.708 403.112 64.092 402.132 64.092C401.544 64.092 400.9 64.484 400.214 65.268V70H398.926ZM408.67 62.384C407.97 62.384 407.354 62.118 406.878 61.67L407.298 61.082C407.634 61.432 408.04 61.656 408.6 61.656C409.132 61.656 409.482 61.46 409.482 61.026C409.482 60.606 409.062 60.354 408.166 60.354V59.78C408.95 59.78 409.3 59.472 409.3 59.108C409.3 58.744 409.048 58.534 408.544 58.534C408.166 58.534 407.802 58.688 407.424 58.996L406.99 58.436C407.452 58.044 408.026 57.806 408.684 57.806C409.608 57.806 410.336 58.268 410.336 59.024C410.336 59.514 410.042 59.85 409.51 60.046C410.098 60.186 410.462 60.564 410.462 61.096C410.462 61.908 409.734 62.384 408.67 62.384Z" fill="#505A5F"/>
</svg>
