<svg width="631" height="164" viewBox="0 0 631 164" fill="none" xmlns="http://www.w3.org/2000/svg">
<path d="M610.563 131.947H615.451V133H608.923V131.852C609.547 131.432 610.11 131.045 610.611 130.689C611.113 130.334 611.555 129.999 611.938 129.685C612.32 129.366 612.648 129.062 612.922 128.775C613.2 128.488 613.428 128.203 613.605 127.921C613.783 127.638 613.913 127.354 613.995 127.066C614.077 126.779 614.118 126.476 614.118 126.157C614.118 125.884 614.07 125.624 613.975 125.378C613.883 125.132 613.749 124.918 613.571 124.735C613.398 124.549 613.182 124.4 612.922 124.291C612.667 124.182 612.375 124.127 612.047 124.127C611.783 124.127 611.527 124.166 611.281 124.243C611.04 124.316 610.823 124.435 610.632 124.599C610.445 124.763 610.292 124.975 610.174 125.234C610.055 125.49 609.989 125.797 609.976 126.157L608.841 126.027C608.859 125.572 608.948 125.161 609.107 124.797C609.267 124.432 609.486 124.122 609.764 123.867C610.046 123.612 610.381 123.416 610.769 123.279C611.16 123.143 611.596 123.074 612.074 123.074C612.539 123.074 612.97 123.152 613.366 123.307C613.767 123.457 614.114 123.669 614.405 123.942C614.701 124.216 614.932 124.539 615.096 124.913C615.264 125.287 615.349 125.695 615.349 126.137C615.349 126.661 615.257 127.153 615.075 127.613C614.897 128.074 614.624 128.527 614.255 128.974C613.886 129.416 613.416 129.862 612.847 130.313C612.282 130.765 611.614 131.241 610.844 131.742L610.563 131.92V131.947ZM617.365 128.017L617.878 123.197H623.477V124.25H618.849L618.555 127.039C618.819 126.784 619.136 126.592 619.505 126.465C619.874 126.333 620.252 126.267 620.64 126.267C621.104 126.267 621.533 126.353 621.925 126.526C622.321 126.695 622.663 126.93 622.95 127.23C623.242 127.531 623.467 127.887 623.627 128.297C623.791 128.707 623.873 129.149 623.873 129.623C623.873 130.152 623.786 130.632 623.613 131.065C623.445 131.498 623.205 131.87 622.896 132.18C622.586 132.485 622.216 132.722 621.788 132.891C621.36 133.055 620.888 133.137 620.373 133.137C619.967 133.137 619.582 133.091 619.218 133C618.858 132.904 618.532 132.763 618.24 132.576C617.949 132.385 617.698 132.15 617.488 131.872C617.283 131.59 617.137 131.261 617.051 130.888L618.247 130.635C618.297 130.831 618.382 131.018 618.5 131.195C618.618 131.368 618.769 131.523 618.951 131.66C619.133 131.792 619.343 131.897 619.58 131.975C619.817 132.052 620.081 132.091 620.373 132.091C620.724 132.091 621.038 132.032 621.316 131.913C621.594 131.795 621.829 131.631 622.021 131.421C622.212 131.207 622.358 130.954 622.458 130.662C622.563 130.37 622.615 130.054 622.615 129.712C622.615 129.356 622.563 129.033 622.458 128.741C622.358 128.45 622.21 128.199 622.014 127.989C621.822 127.775 621.588 127.611 621.31 127.497C621.032 127.379 620.715 127.319 620.359 127.319C620.191 127.319 620.018 127.34 619.84 127.381C619.667 127.422 619.498 127.479 619.334 127.552C619.174 127.625 619.024 127.714 618.883 127.818C618.742 127.923 618.621 128.039 618.521 128.167L617.365 128.017Z" fill="#505A5F"/>
<path d="M612.396 162.077C612.715 162.077 613.011 161.993 613.284 161.824C613.562 161.656 613.799 161.414 613.995 161.1C614.196 160.781 614.353 160.391 614.467 159.931C614.581 159.466 614.638 158.939 614.638 158.352V157.859C614.638 157.271 614.581 156.747 614.467 156.287C614.353 155.827 614.196 155.437 613.995 155.118C613.799 154.799 613.562 154.558 613.284 154.394C613.011 154.225 612.715 154.141 612.396 154.141C612.072 154.141 611.773 154.225 611.5 154.394C611.227 154.558 610.99 154.799 610.789 155.118C610.593 155.437 610.438 155.827 610.324 156.287C610.21 156.747 610.153 157.271 610.153 157.859V158.352C610.153 158.939 610.21 159.466 610.324 159.931C610.438 160.391 610.593 160.781 610.789 161.1C610.99 161.414 611.227 161.656 611.5 161.824C611.773 161.993 612.072 162.077 612.396 162.077ZM612.396 153.074C612.815 153.074 613.193 153.14 613.53 153.272C613.868 153.405 614.164 153.587 614.419 153.819C614.679 154.047 614.9 154.321 615.082 154.64C615.269 154.959 615.422 155.305 615.54 155.679C615.659 156.048 615.745 156.44 615.8 156.854C615.854 157.269 615.882 157.688 615.882 158.112C615.882 158.536 615.854 158.955 615.8 159.37C615.745 159.78 615.659 160.172 615.54 160.546C615.422 160.915 615.269 161.259 615.082 161.578C614.9 161.893 614.679 162.166 614.419 162.398C614.164 162.631 613.868 162.813 613.53 162.945C613.193 163.073 612.815 163.137 612.396 163.137C611.976 163.137 611.598 163.073 611.261 162.945C610.924 162.813 610.625 162.631 610.365 162.398C610.11 162.166 609.889 161.893 609.702 161.578C609.52 161.259 609.369 160.915 609.251 160.546C609.132 160.172 609.046 159.78 608.991 159.37C608.937 158.955 608.909 158.536 608.909 158.112C608.909 157.688 608.937 157.269 608.991 156.854C609.046 156.44 609.132 156.048 609.251 155.679C609.369 155.305 609.52 154.959 609.702 154.64C609.889 154.321 610.11 154.047 610.365 153.819C610.625 153.587 610.924 153.405 611.261 153.272C611.598 153.14 611.976 153.074 612.396 153.074Z" fill="#505A5F"/>
<path d="M609.025 98.0166L609.538 93.1973H615.137V94.25H610.509L610.215 97.0391C610.479 96.7839 610.796 96.5924 611.165 96.4648C611.534 96.3327 611.912 96.2666 612.3 96.2666C612.765 96.2666 613.193 96.3532 613.585 96.5264C613.981 96.695 614.323 96.9297 614.61 97.2305C614.902 97.5312 615.128 97.8867 615.287 98.2969C615.451 98.707 615.533 99.1491 615.533 99.623C615.533 100.152 615.447 100.632 615.273 101.065C615.105 101.498 614.866 101.87 614.556 102.18C614.246 102.485 613.877 102.722 613.448 102.891C613.02 103.055 612.548 103.137 612.033 103.137C611.628 103.137 611.243 103.091 610.878 103C610.518 102.904 610.192 102.763 609.9 102.576C609.609 102.385 609.358 102.15 609.148 101.872C608.943 101.59 608.798 101.261 608.711 100.888L609.907 100.635C609.957 100.831 610.042 101.018 610.16 101.195C610.279 101.368 610.429 101.523 610.611 101.66C610.794 101.792 611.003 101.897 611.24 101.975C611.477 102.052 611.742 102.091 612.033 102.091C612.384 102.091 612.699 102.032 612.977 101.913C613.255 101.795 613.489 101.631 613.681 101.421C613.872 101.207 614.018 100.954 614.118 100.662C614.223 100.37 614.275 100.054 614.275 99.7119C614.275 99.3564 614.223 99.0329 614.118 98.7412C614.018 98.4495 613.87 98.1989 613.674 97.9893C613.482 97.7751 613.248 97.611 612.97 97.4971C612.692 97.3786 612.375 97.3193 612.02 97.3193C611.851 97.3193 611.678 97.3398 611.5 97.3809C611.327 97.4219 611.158 97.4788 610.994 97.5518C610.835 97.6247 610.684 97.7135 610.543 97.8184C610.402 97.9232 610.281 98.0394 610.181 98.167L609.025 98.0166ZM620.667 102.077C620.986 102.077 621.282 101.993 621.556 101.824C621.834 101.656 622.071 101.414 622.267 101.1C622.467 100.781 622.624 100.391 622.738 99.9307C622.852 99.4658 622.909 98.9395 622.909 98.3516V97.8594C622.909 97.2715 622.852 96.7474 622.738 96.2871C622.624 95.8268 622.467 95.4372 622.267 95.1182C622.071 94.7992 621.834 94.5576 621.556 94.3936C621.282 94.2249 620.986 94.1406 620.667 94.1406C620.343 94.1406 620.045 94.2249 619.771 94.3936C619.498 94.5576 619.261 94.7992 619.061 95.1182C618.865 95.4372 618.71 95.8268 618.596 96.2871C618.482 96.7474 618.425 97.2715 618.425 97.8594V98.3516C618.425 98.9395 618.482 99.4658 618.596 99.9307C618.71 100.391 618.865 100.781 619.061 101.1C619.261 101.414 619.498 101.656 619.771 101.824C620.045 101.993 620.343 102.077 620.667 102.077ZM620.667 93.0742C621.086 93.0742 621.465 93.1403 621.802 93.2725C622.139 93.4046 622.435 93.5869 622.69 93.8193C622.95 94.0472 623.171 94.3206 623.354 94.6396C623.54 94.9587 623.693 95.305 623.812 95.6787C623.93 96.0479 624.017 96.4398 624.071 96.8545C624.126 97.2692 624.153 97.6885 624.153 98.1123C624.153 98.5361 624.126 98.9554 624.071 99.3701C624.017 99.7803 623.93 100.172 623.812 100.546C623.693 100.915 623.54 101.259 623.354 101.578C623.171 101.893 622.95 102.166 622.69 102.398C622.435 102.631 622.139 102.813 621.802 102.945C621.465 103.073 621.086 103.137 620.667 103.137C620.248 103.137 619.869 103.073 619.532 102.945C619.195 102.813 618.896 102.631 618.637 102.398C618.382 102.166 618.16 101.893 617.974 101.578C617.791 101.259 617.641 100.915 617.522 100.546C617.404 100.172 617.317 99.7803 617.263 99.3701C617.208 98.9554 617.181 98.5361 617.181 98.1123C617.181 97.6885 617.208 97.2692 617.263 96.8545C617.317 96.4398 617.404 96.0479 617.522 95.6787C617.641 95.305 617.791 94.9587 617.974 94.6396C618.16 94.3206 618.382 94.0472 618.637 93.8193C618.896 93.5869 619.195 93.4046 619.532 93.2725C619.869 93.1403 620.248 93.0742 620.667 93.0742Z" fill="#505A5F"/>
<path d="M613.715 64.291H608.52V63.1973H614.945V64.291L611.302 73H609.962L613.715 64.291ZM616.422 68.0166L616.935 63.1973H622.533V64.25H617.905L617.611 67.0391C617.876 66.7839 618.192 66.5924 618.562 66.4648C618.931 66.3327 619.309 66.2666 619.696 66.2666C620.161 66.2666 620.59 66.3532 620.981 66.5264C621.378 66.695 621.72 66.9297 622.007 67.2305C622.299 67.5312 622.524 67.8867 622.684 68.2969C622.848 68.707 622.93 69.1491 622.93 69.623C622.93 70.1517 622.843 70.6325 622.67 71.0654C622.501 71.4984 622.262 71.8698 621.952 72.1797C621.642 72.485 621.273 72.722 620.845 72.8906C620.416 73.0547 619.945 73.1367 619.43 73.1367C619.024 73.1367 618.639 73.0911 618.274 73C617.914 72.9043 617.589 72.763 617.297 72.5762C617.005 72.3848 616.755 72.1501 616.545 71.8721C616.34 71.5895 616.194 71.2614 616.107 70.8877L617.304 70.6348C617.354 70.8307 617.438 71.0176 617.557 71.1953C617.675 71.3685 617.826 71.5234 618.008 71.6602C618.19 71.7923 618.4 71.8971 618.637 71.9746C618.874 72.0521 619.138 72.0908 619.43 72.0908C619.781 72.0908 620.095 72.0316 620.373 71.9131C620.651 71.7946 620.886 71.6305 621.077 71.4209C621.269 71.2067 621.414 70.9538 621.515 70.6621C621.619 70.3704 621.672 70.0537 621.672 69.7119C621.672 69.3564 621.619 69.0329 621.515 68.7412C621.414 68.4495 621.266 68.1989 621.07 67.9893C620.879 67.7751 620.644 67.611 620.366 67.4971C620.088 67.3786 619.771 67.3193 619.416 67.3193C619.247 67.3193 619.074 67.3398 618.896 67.3809C618.723 67.4219 618.555 67.4788 618.391 67.5518C618.231 67.6247 618.081 67.7135 617.939 67.8184C617.798 67.9232 617.677 68.0394 617.577 68.167L616.422 68.0166Z" fill="#505A5F"/>
<path d="M608.854 34.7832C609.174 34.7832 609.433 34.7581 609.634 34.708C609.834 34.6533 609.989 34.569 610.099 34.4551C610.208 34.3411 610.281 34.1953 610.317 34.0176C610.358 33.8353 610.379 33.6143 610.379 33.3545V33.1973H611.541V43H610.338V35.8018H608.431V34.7832H608.854ZM617.563 42.0771C617.882 42.0771 618.179 41.9928 618.452 41.8242C618.73 41.6556 618.967 41.4141 619.163 41.0996C619.364 40.7806 619.521 40.391 619.635 39.9307C619.749 39.4658 619.806 38.9395 619.806 38.3516V37.8594C619.806 37.2715 619.749 36.7474 619.635 36.2871C619.521 35.8268 619.364 35.4372 619.163 35.1182C618.967 34.7992 618.73 34.5576 618.452 34.3936C618.179 34.2249 617.882 34.1406 617.563 34.1406C617.24 34.1406 616.941 34.2249 616.668 34.3936C616.395 34.5576 616.158 34.7992 615.957 35.1182C615.761 35.4372 615.606 35.8268 615.492 36.2871C615.378 36.7474 615.321 37.2715 615.321 37.8594V38.3516C615.321 38.9395 615.378 39.4658 615.492 39.9307C615.606 40.391 615.761 40.7806 615.957 41.0996C616.158 41.4141 616.395 41.6556 616.668 41.8242C616.941 41.9928 617.24 42.0771 617.563 42.0771ZM617.563 33.0742C617.983 33.0742 618.361 33.1403 618.698 33.2725C619.035 33.4046 619.332 33.5869 619.587 33.8193C619.847 34.0472 620.068 34.3206 620.25 34.6396C620.437 34.9587 620.59 35.305 620.708 35.6787C620.826 36.0479 620.913 36.4398 620.968 36.8545C621.022 37.2692 621.05 37.6885 621.05 38.1123C621.05 38.5361 621.022 38.9554 620.968 39.3701C620.913 39.7803 620.826 40.1722 620.708 40.5459C620.59 40.915 620.437 41.2591 620.25 41.5781C620.068 41.8926 619.847 42.166 619.587 42.3984C619.332 42.6309 619.035 42.8132 618.698 42.9453C618.361 43.0729 617.983 43.1367 617.563 43.1367C617.144 43.1367 616.766 43.0729 616.429 42.9453C616.091 42.8132 615.793 42.6309 615.533 42.3984C615.278 42.166 615.057 41.8926 614.87 41.5781C614.688 41.2591 614.537 40.915 614.419 40.5459C614.3 40.1722 614.214 39.7803 614.159 39.3701C614.104 38.9554 614.077 38.5361 614.077 38.1123C614.077 37.6885 614.104 37.2692 614.159 36.8545C614.214 36.4398 614.3 36.0479 614.419 35.6787C614.537 35.305 614.688 34.9587 614.87 34.6396C615.057 34.3206 615.278 34.0472 615.533 33.8193C615.793 33.5869 616.091 33.4046 616.429 33.2725C616.766 33.1403 617.144 33.0742 617.563 33.0742ZM626.354 42.0771C626.674 42.0771 626.97 41.9928 627.243 41.8242C627.521 41.6556 627.758 41.4141 627.954 41.0996C628.155 40.7806 628.312 40.391 628.426 39.9307C628.54 39.4658 628.597 38.9395 628.597 38.3516V37.8594C628.597 37.2715 628.54 36.7474 628.426 36.2871C628.312 35.8268 628.155 35.4372 627.954 35.1182C627.758 34.7992 627.521 34.5576 627.243 34.3936C626.97 34.2249 626.674 34.1406 626.354 34.1406C626.031 34.1406 625.732 34.2249 625.459 34.3936C625.186 34.5576 624.949 34.7992 624.748 35.1182C624.552 35.4372 624.397 35.8268 624.283 36.2871C624.169 36.7474 624.112 37.2715 624.112 37.8594V38.3516C624.112 38.9395 624.169 39.4658 624.283 39.9307C624.397 40.391 624.552 40.7806 624.748 41.0996C624.949 41.4141 625.186 41.6556 625.459 41.8242C625.732 41.9928 626.031 42.0771 626.354 42.0771ZM626.354 33.0742C626.774 33.0742 627.152 33.1403 627.489 33.2725C627.826 33.4046 628.123 33.5869 628.378 33.8193C628.638 34.0472 628.859 34.3206 629.041 34.6396C629.228 34.9587 629.381 35.305 629.499 35.6787C629.618 36.0479 629.704 36.4398 629.759 36.8545C629.813 37.2692 629.841 37.6885 629.841 38.1123C629.841 38.5361 629.813 38.9554 629.759 39.3701C629.704 39.7803 629.618 40.1722 629.499 40.5459C629.381 40.915 629.228 41.2591 629.041 41.5781C628.859 41.8926 628.638 42.166 628.378 42.3984C628.123 42.6309 627.826 42.8132 627.489 42.9453C627.152 43.0729 626.774 43.1367 626.354 43.1367C625.935 43.1367 625.557 43.0729 625.22 42.9453C624.882 42.8132 624.584 42.6309 624.324 42.3984C624.069 42.166 623.848 41.8926 623.661 41.5781C623.479 41.2591 623.328 40.915 623.21 40.5459C623.091 40.1722 623.005 39.7803 622.95 39.3701C622.896 38.9554 622.868 38.5361 622.868 38.1123C622.868 37.6885 622.896 37.2692 622.95 36.8545C623.005 36.4398 623.091 36.0479 623.21 35.6787C623.328 35.305 623.479 34.9587 623.661 34.6396C623.848 34.3206 624.069 34.0472 624.324 33.8193C624.584 33.5869 624.882 33.4046 625.22 33.2725C625.557 33.1403 625.935 33.0742 626.354 33.0742Z" fill="#505A5F"/>
<path d="M608.854 4.7832C609.174 4.7832 609.433 4.75814 609.634 4.70801C609.834 4.65332 609.989 4.56901 610.099 4.45508C610.208 4.34115 610.281 4.19531 610.317 4.01758C610.358 3.83529 610.379 3.61426 610.379 3.35449V3.19727H611.541V13H610.338V5.80176H608.431V4.7832H608.854ZM615.731 11.9473H620.619V13H614.091V11.8516C614.715 11.4323 615.278 11.0449 615.779 10.6895C616.281 10.334 616.723 9.99902 617.105 9.68457C617.488 9.36556 617.816 9.0625 618.09 8.77539C618.368 8.48828 618.596 8.20345 618.773 7.9209C618.951 7.63835 619.081 7.35352 619.163 7.06641C619.245 6.7793 619.286 6.47624 619.286 6.15723C619.286 5.88379 619.238 5.62402 619.143 5.37793C619.051 5.13184 618.917 4.91764 618.739 4.73535C618.566 4.5485 618.35 4.40039 618.09 4.29102C617.835 4.18164 617.543 4.12695 617.215 4.12695C616.951 4.12695 616.695 4.16569 616.449 4.24316C616.208 4.31608 615.991 4.43457 615.8 4.59863C615.613 4.7627 615.46 4.97461 615.342 5.23438C615.223 5.48958 615.157 5.7972 615.144 6.15723L614.009 6.02734C614.027 5.57161 614.116 5.16146 614.275 4.79688C614.435 4.43229 614.654 4.1224 614.932 3.86719C615.214 3.61198 615.549 3.41602 615.937 3.2793C616.328 3.14258 616.764 3.07422 617.242 3.07422C617.707 3.07422 618.138 3.15169 618.534 3.30664C618.935 3.45703 619.282 3.66895 619.573 3.94238C619.869 4.21582 620.1 4.53939 620.264 4.91309C620.432 5.28678 620.517 5.69466 620.517 6.13672C620.517 6.66081 620.425 7.15299 620.243 7.61328C620.065 8.07357 619.792 8.52702 619.423 8.97363C619.054 9.41569 618.584 9.8623 618.015 10.3135C617.45 10.7646 616.782 11.2409 616.012 11.7422L615.731 11.9199V11.9473ZM622.533 8.0166L623.046 3.19727H628.645V4.25H624.017L623.723 7.03906C623.987 6.78385 624.304 6.59245 624.673 6.46484C625.042 6.33268 625.42 6.2666 625.808 6.2666C626.272 6.2666 626.701 6.35319 627.093 6.52637C627.489 6.69499 627.831 6.92969 628.118 7.23047C628.41 7.53125 628.635 7.88672 628.795 8.29688C628.959 8.70703 629.041 9.14909 629.041 9.62305C629.041 10.1517 628.954 10.6325 628.781 11.0654C628.613 11.4984 628.373 11.8698 628.063 12.1797C627.754 12.485 627.384 12.722 626.956 12.8906C626.528 13.0547 626.056 13.1367 625.541 13.1367C625.135 13.1367 624.75 13.0911 624.386 13C624.026 12.9043 623.7 12.763 623.408 12.5762C623.117 12.3848 622.866 12.1501 622.656 11.8721C622.451 11.5895 622.305 11.2614 622.219 10.8877L623.415 10.6348C623.465 10.8307 623.549 11.0176 623.668 11.1953C623.786 11.3685 623.937 11.5234 624.119 11.6602C624.301 11.7923 624.511 11.8971 624.748 11.9746C624.985 12.0521 625.249 12.0908 625.541 12.0908C625.892 12.0908 626.206 12.0316 626.484 11.9131C626.762 11.7946 626.997 11.6305 627.188 11.4209C627.38 11.2067 627.526 10.9538 627.626 10.6621C627.731 10.3704 627.783 10.0537 627.783 9.71191C627.783 9.35645 627.731 9.03288 627.626 8.74121C627.526 8.44954 627.378 8.19889 627.182 7.98926C626.99 7.77507 626.756 7.611 626.478 7.49707C626.2 7.37858 625.883 7.31934 625.527 7.31934C625.359 7.31934 625.186 7.33984 625.008 7.38086C624.835 7.42188 624.666 7.47884 624.502 7.55176C624.342 7.62467 624.192 7.71354 624.051 7.81836C623.91 7.92318 623.789 8.03939 623.688 8.16699L622.533 8.0166Z" fill="#505A5F"/>
<path d="M1 158H601" stroke="#B1B4B6"/>
<path d="M1 128H600.02" stroke="#E6E6E6"/>
<path d="M1 98H600.02" stroke="#E6E6E6"/>
<path d="M1 68H600.02" stroke="#E6E6E6"/>
<path d="M1 38H600.02" stroke="#E6E6E6"/>
<path d="M2 8H601.02" stroke="#E6E6E6"/>
<path d="M8.1066 156.452L1 154.452V158H601V155H591.863L560.391 156L542 155.872L508.107 152.226L489.325 156.248L465.5 156.524L440.086 155.239L415.137 154.472L389.325 155.642L363.944 156.048L339.071 153.587L313.69 156.212L288.31 156.427L263.437 153.303L236.025 156.452L211.66 155.936L186.279 154.258L161.914 156.129L135.518 147.194L109.629 155.903L84.7563 155.452L58.3604 157.303L33.9949 155.936L8.1066 156.452Z" fill="#EBF0F7"/>
<rect y="77" width="212" height="18" fill="white"/>
<path d="M6 150L1.5 155.5L1 158H601V84H591.863L560.391 113L542 128.872L508.107 144.226L489.325 148.248L465.5 150.524L440.086 145.239L415.137 151.472L389.325 151.642L363.944 134.048L339.071 152.587L313.69 143.212L288.31 146.427L263.437 146.303L236.025 153.452L211.66 146.935L186.279 148.258L161.914 148.129L135.518 120.194L109.629 104.903L84.7563 79.4516L58.3604 58.3027L33.9949 115.935L6 150Z" fill="#EBF0F7"/>
<path d="M1 155.149H3.5L7.1066 148.149L32.9949 116.633L57.3604 59L83.7563 80.1489L108.629 105.6L134.518 120.891L160.914 148.826L185.279 148.955L210.66 147.633L235.025 154.149L262.437 147L287.31 147.124L312.69 143.909L338.071 153.284L362.944 134.745L388.325 152.339L414.137 152.169L439.086 145.936L464.5 151.221L488.325 148.945L507.107 144.923L541 129.569L559.391 113.697L590.863 84.6973H601" stroke="#3A70B3" stroke-width="3"/>
<path d="M1 68H600.02" stroke="#D4351C" stroke-width="3"/>
<path d="M316.5 58.5L309 66L302 58.5L257 58.5L221.5 58.5L221.5 23L398.5 23L398.5 58.5L316.5 58.5Z" fill="white" stroke="#525A5F"/>
<path d="M237.627 40.4951H232.466V45H231.263V35.1973H232.466V39.4561H237.627V35.1973H238.837V45H237.627V40.4951ZM242.303 45H241.154V38.0137H242.303V45ZM240.942 35.9971C240.942 35.8877 240.963 35.7852 241.004 35.6895C241.049 35.5938 241.106 35.5094 241.175 35.4365C241.248 35.3636 241.332 35.3066 241.428 35.2656C241.528 35.2201 241.633 35.1973 241.742 35.1973C241.852 35.1973 241.954 35.2201 242.05 35.2656C242.146 35.3066 242.228 35.3636 242.296 35.4365C242.369 35.5094 242.426 35.5938 242.467 35.6895C242.512 35.7852 242.535 35.8877 242.535 35.9971C242.535 36.1064 242.512 36.2113 242.467 36.3115C242.426 36.4072 242.369 36.4915 242.296 36.5645C242.228 36.6328 242.146 36.6898 242.05 36.7354C241.954 36.7764 241.852 36.7969 241.742 36.7969C241.633 36.7969 241.528 36.7764 241.428 36.7354C241.332 36.6898 241.248 36.6328 241.175 36.5645C241.106 36.4915 241.049 36.4072 241.004 36.3115C240.963 36.2113 240.942 36.1064 240.942 35.9971ZM244.012 41.124C244.012 40.6637 244.078 40.2354 244.21 39.8389C244.342 39.4424 244.531 39.1006 244.777 38.8135C245.023 38.5218 245.32 38.2939 245.666 38.1299C246.017 37.9613 246.409 37.877 246.842 37.877C247.225 37.877 247.589 37.9521 247.936 38.1025C248.282 38.2484 248.576 38.4854 248.817 38.8135V38.0137H249.966V45C249.966 45.4329 249.877 45.7952 249.699 46.0869C249.526 46.3831 249.298 46.6201 249.016 46.7979C248.733 46.9756 248.412 47.1032 248.052 47.1807C247.696 47.2581 247.334 47.2969 246.965 47.2969C246.76 47.2969 246.546 47.2855 246.322 47.2627C246.104 47.2399 245.882 47.2057 245.659 47.1602C245.436 47.1146 245.215 47.0553 244.996 46.9824C244.782 46.9141 244.577 46.832 244.381 46.7363L244.798 45.7725C244.935 45.8363 245.078 45.8978 245.229 45.957C245.379 46.0208 245.541 46.0778 245.714 46.1279C245.892 46.1781 246.081 46.2191 246.281 46.251C246.482 46.2829 246.701 46.2988 246.938 46.2988C247.229 46.2988 247.491 46.2692 247.724 46.21C247.961 46.1507 248.159 46.0573 248.318 45.9297C248.478 45.8066 248.601 45.6471 248.688 45.4512C248.774 45.2598 248.817 45.0296 248.817 44.7607V43.4346C248.576 43.7627 248.282 44.002 247.936 44.1523C247.589 44.2982 247.225 44.3711 246.842 44.3711C246.409 44.3711 246.017 44.2891 245.666 44.125C245.32 43.9564 245.023 43.7262 244.777 43.4346C244.531 43.1429 244.342 42.8011 244.21 42.4092C244.078 42.0127 244.012 41.5843 244.012 41.124ZM248.845 41.0967C248.845 40.7822 248.811 40.4928 248.742 40.2285C248.674 39.9596 248.567 39.7272 248.421 39.5312C248.275 39.3307 248.088 39.1758 247.86 39.0664C247.637 38.9525 247.368 38.8955 247.054 38.8955C246.735 38.8955 246.459 38.9525 246.227 39.0664C245.994 39.1803 245.8 39.3376 245.646 39.5381C245.495 39.734 245.383 39.9665 245.311 40.2354C245.238 40.5042 245.201 40.7913 245.201 41.0967V41.1514C245.201 41.4567 245.238 41.7438 245.311 42.0127C245.383 42.277 245.495 42.5094 245.646 42.71C245.8 42.9059 245.994 43.0609 246.227 43.1748C246.459 43.2887 246.735 43.3457 247.054 43.3457C247.368 43.3457 247.637 43.291 247.86 43.1816C248.088 43.0677 248.275 42.9128 248.421 42.7168C248.567 42.5208 248.674 42.2884 248.742 42.0195C248.811 41.7507 248.845 41.4613 248.845 41.1514V41.0967ZM252.064 35.1973H253.213V38.8135C253.45 38.4899 253.742 38.2529 254.088 38.1025C254.439 37.9521 254.828 37.877 255.257 37.877C255.644 37.877 255.984 37.9408 256.275 38.0684C256.567 38.196 256.811 38.3691 257.007 38.5879C257.203 38.8066 257.349 39.0596 257.444 39.3467C257.545 39.6338 257.595 39.9368 257.595 40.2559V45H256.446V40.6182C256.446 40.3128 256.408 40.0531 256.33 39.8389C256.257 39.6201 256.155 39.4447 256.022 39.3125C255.895 39.1758 255.742 39.0778 255.564 39.0186C255.391 38.9548 255.204 38.9229 255.004 38.9229C254.785 38.9229 254.569 38.9639 254.354 39.0459C254.14 39.1234 253.949 39.2419 253.78 39.4014C253.612 39.5609 253.475 39.7614 253.37 40.0029C253.265 40.2445 253.213 40.5293 253.213 40.8574V45H252.064V35.1973ZM262.394 35.1973H263.542V43.4346C263.542 43.5485 263.551 43.6488 263.569 43.7354C263.592 43.8219 263.629 43.8949 263.679 43.9541C263.729 44.0133 263.797 44.0589 263.884 44.0908C263.975 44.1182 264.087 44.1318 264.219 44.1318C264.365 44.1318 264.497 44.1273 264.615 44.1182C264.734 44.109 264.839 44.0999 264.93 44.0908L265.046 45.0547C264.914 45.0684 264.782 45.082 264.649 45.0957C264.535 45.1048 264.41 45.1139 264.273 45.123C264.137 45.1322 264.007 45.1367 263.884 45.1367C263.679 45.1367 263.485 45.1117 263.303 45.0615C263.12 45.016 262.961 44.9385 262.824 44.8291C262.692 44.7197 262.587 44.5785 262.51 44.4053C262.432 44.2321 262.394 44.0202 262.394 43.7695V35.1973ZM266.926 41.8623C266.949 42.1904 267.015 42.4935 267.124 42.7715C267.233 43.0495 267.382 43.291 267.568 43.4961C267.76 43.6966 267.983 43.8538 268.238 43.9678C268.498 44.0771 268.785 44.1318 269.1 44.1318C269.487 44.1318 269.826 44.068 270.118 43.9404C270.414 43.8083 270.686 43.6442 270.932 43.4482L271.52 44.2754C271.205 44.526 270.84 44.7334 270.426 44.8975C270.016 45.057 269.555 45.1367 269.045 45.1367C268.539 45.1367 268.081 45.0479 267.671 44.8701C267.261 44.6878 266.91 44.4372 266.618 44.1182C266.331 43.7946 266.11 43.4118 265.955 42.9697C265.8 42.5231 265.723 42.0378 265.723 41.5137C265.723 40.9805 265.798 40.4928 265.948 40.0508C266.103 39.6042 266.32 39.2214 266.598 38.9023C266.876 38.5788 267.208 38.3281 267.596 38.1504C267.983 37.9681 268.414 37.877 268.888 37.877C269.348 37.877 269.763 37.9681 270.132 38.1504C270.501 38.3281 270.815 38.5788 271.075 38.9023C271.335 39.2214 271.533 39.6042 271.67 40.0508C271.811 40.4928 271.882 40.9759 271.882 41.5V41.8623H266.926ZM268.847 38.8818C268.555 38.8818 268.295 38.9388 268.067 39.0527C267.84 39.1667 267.644 39.3193 267.479 39.5107C267.32 39.7021 267.192 39.9232 267.097 40.1738C267.006 40.4199 266.953 40.6751 266.939 40.9395H270.638C270.629 40.6706 270.581 40.4131 270.494 40.167C270.412 39.9163 270.294 39.6976 270.139 39.5107C269.988 39.3193 269.804 39.1667 269.585 39.0527C269.371 38.9388 269.125 38.8818 268.847 38.8818ZM274.89 45L272.675 38.0137H273.98L275.655 43.9336L277.323 38.0137H278.629L276.414 45H274.89ZM280.666 41.8623C280.689 42.1904 280.755 42.4935 280.864 42.7715C280.974 43.0495 281.122 43.291 281.309 43.4961C281.5 43.6966 281.723 43.8538 281.979 43.9678C282.238 44.0771 282.525 44.1318 282.84 44.1318C283.227 44.1318 283.567 44.068 283.858 43.9404C284.155 43.8083 284.426 43.6442 284.672 43.4482L285.26 44.2754C284.945 44.526 284.581 44.7334 284.166 44.8975C283.756 45.057 283.296 45.1367 282.785 45.1367C282.279 45.1367 281.821 45.0479 281.411 44.8701C281.001 44.6878 280.65 44.4372 280.358 44.1182C280.071 43.7946 279.85 43.4118 279.695 42.9697C279.54 42.5231 279.463 42.0378 279.463 41.5137C279.463 40.9805 279.538 40.4928 279.688 40.0508C279.843 39.6042 280.06 39.2214 280.338 38.9023C280.616 38.5788 280.949 38.3281 281.336 38.1504C281.723 37.9681 282.154 37.877 282.628 37.877C283.088 37.877 283.503 37.9681 283.872 38.1504C284.241 38.3281 284.556 38.5788 284.815 38.9023C285.075 39.2214 285.273 39.6042 285.41 40.0508C285.551 40.4928 285.622 40.9759 285.622 41.5V41.8623H280.666ZM282.587 38.8818C282.295 38.8818 282.035 38.9388 281.808 39.0527C281.58 39.1667 281.384 39.3193 281.22 39.5107C281.06 39.7021 280.933 39.9232 280.837 40.1738C280.746 40.4199 280.693 40.6751 280.68 40.9395H284.378C284.369 40.6706 284.321 40.4131 284.234 40.167C284.152 39.9163 284.034 39.6976 283.879 39.5107C283.729 39.3193 283.544 39.1667 283.325 39.0527C283.111 38.9388 282.865 38.8818 282.587 38.8818ZM287.181 35.1973H288.329V43.4346C288.329 43.5485 288.338 43.6488 288.356 43.7354C288.379 43.8219 288.416 43.8949 288.466 43.9541C288.516 44.0133 288.584 44.0589 288.671 44.0908C288.762 44.1182 288.874 44.1318 289.006 44.1318C289.152 44.1318 289.284 44.1273 289.402 44.1182C289.521 44.109 289.626 44.0999 289.717 44.0908L289.833 45.0547C289.701 45.0684 289.569 45.082 289.437 45.0957C289.323 45.1048 289.197 45.1139 289.061 45.123C288.924 45.1322 288.794 45.1367 288.671 45.1367C288.466 45.1367 288.272 45.1117 288.09 45.0615C287.908 45.016 287.748 44.9385 287.611 44.8291C287.479 44.7197 287.374 44.5785 287.297 44.4053C287.219 44.2321 287.181 44.0202 287.181 43.7695V35.1973ZM295.609 43.0654C295.609 43.3936 295.536 43.6875 295.391 43.9473C295.249 44.2025 295.06 44.4189 294.823 44.5967C294.586 44.7744 294.313 44.9089 294.003 45C293.698 45.0911 293.383 45.1367 293.06 45.1367C292.549 45.1367 292.057 45.0501 291.583 44.877C291.114 44.6992 290.697 44.4463 290.332 44.1182L290.961 43.3047C291.07 43.4004 291.196 43.5007 291.337 43.6055C291.483 43.7103 291.645 43.8083 291.822 43.8994C292 43.986 292.191 44.0589 292.396 44.1182C292.602 44.1729 292.818 44.2002 293.046 44.2002C293.233 44.2002 293.41 44.1774 293.579 44.1318C293.752 44.0817 293.903 44.0111 294.03 43.9199C294.158 43.8242 294.258 43.7126 294.331 43.585C294.409 43.4528 294.447 43.3047 294.447 43.1406C294.447 42.9583 294.406 42.8057 294.324 42.6826C294.247 42.5596 294.14 42.4548 294.003 42.3682C293.866 42.2816 293.707 42.2064 293.524 42.1426C293.342 42.0788 293.151 42.015 292.95 41.9512L292.513 41.8076C292.267 41.7256 292.03 41.6322 291.802 41.5273C291.574 41.4225 291.371 41.2949 291.193 41.1445C291.02 40.9896 290.881 40.8073 290.776 40.5977C290.676 40.388 290.626 40.1374 290.626 39.8457C290.626 39.6087 290.676 39.374 290.776 39.1416C290.877 38.9046 291.029 38.6927 291.234 38.5059C291.444 38.319 291.708 38.1686 292.027 38.0547C292.346 37.9362 292.722 37.877 293.155 37.877C293.634 37.877 294.076 37.9567 294.481 38.1162C294.892 38.2757 295.238 38.474 295.521 38.7109L294.919 39.5381C294.819 39.4424 294.7 39.3512 294.563 39.2646C294.427 39.1781 294.281 39.1029 294.126 39.0391C293.971 38.9707 293.809 38.916 293.641 38.875C293.472 38.834 293.306 38.8135 293.142 38.8135C292.891 38.8135 292.679 38.8431 292.506 38.9023C292.333 38.957 292.194 39.0299 292.089 39.1211C291.984 39.2122 291.907 39.3148 291.856 39.4287C291.811 39.5426 291.788 39.6543 291.788 39.7637C291.788 39.9232 291.822 40.0576 291.891 40.167C291.959 40.2718 292.048 40.363 292.157 40.4404C292.271 40.5179 292.399 40.584 292.54 40.6387C292.686 40.6934 292.836 40.748 292.991 40.8027L293.565 40.9941C293.839 41.0853 294.09 41.1833 294.317 41.2881C294.545 41.3883 294.746 41.5046 294.919 41.6367C295.138 41.8099 295.306 42.0104 295.425 42.2383C295.548 42.4661 295.609 42.7419 295.609 43.0654ZM304.838 36.291H299.643V35.1973H306.068V36.291L302.425 45H301.085L304.838 36.291ZM307.36 40.3926C307.36 39.9505 307.39 39.513 307.449 39.0801C307.513 38.6426 307.609 38.2256 307.736 37.8291C307.868 37.4326 308.035 37.0658 308.235 36.7285C308.44 36.3913 308.687 36.0996 308.974 35.8535C309.265 35.6074 309.598 35.4137 309.972 35.2725C310.35 35.1312 310.776 35.0605 311.25 35.0605C311.592 35.0605 311.911 35.1016 312.207 35.1836C312.503 35.2611 312.772 35.3704 313.014 35.5117C313.26 35.6484 313.479 35.8125 313.67 36.0039C313.861 36.1953 314.025 36.4027 314.162 36.626L312.986 36.9951C312.549 36.3662 311.97 36.0518 311.25 36.0518C310.781 36.0518 310.377 36.1634 310.04 36.3867C309.707 36.61 309.432 36.9062 309.213 37.2754C308.994 37.64 308.83 38.0592 308.721 38.5332C308.616 39.0026 308.559 39.488 308.55 39.9893H308.577C308.659 39.8206 308.78 39.6543 308.939 39.4902C309.104 39.3262 309.297 39.1781 309.521 39.0459C309.748 38.9137 310.004 38.8066 310.286 38.7246C310.573 38.6426 310.881 38.6016 311.209 38.6016C311.674 38.6016 312.1 38.6836 312.487 38.8477C312.879 39.0072 313.216 39.2305 313.499 39.5176C313.786 39.8047 314.007 40.1442 314.162 40.5361C314.322 40.9281 314.401 41.3519 314.401 41.8076C314.401 42.277 314.317 42.7168 314.148 43.127C313.984 43.5326 313.752 43.8857 313.451 44.1865C313.155 44.4873 312.799 44.7243 312.385 44.8975C311.97 45.0706 311.517 45.1572 311.024 45.1572C310.505 45.1572 310.022 45.0592 309.575 44.8633C309.129 44.6673 308.741 44.3779 308.413 43.9951C308.085 43.6123 307.827 43.1406 307.641 42.5801C307.454 42.015 307.36 41.3656 307.36 40.6318V40.3926ZM308.762 41.8486C308.762 42.1904 308.816 42.5026 308.926 42.7852C309.04 43.0632 309.195 43.3047 309.391 43.5098C309.587 43.7103 309.819 43.8675 310.088 43.9814C310.361 44.0908 310.66 44.1455 310.983 44.1455C311.298 44.1455 311.59 44.0931 311.858 43.9883C312.127 43.8789 312.36 43.7262 312.556 43.5303C312.752 43.3343 312.904 43.0973 313.014 42.8193C313.128 42.5413 313.185 42.2314 313.185 41.8896C313.185 41.5433 313.13 41.2311 313.021 40.9531C312.911 40.6706 312.758 40.4313 312.562 40.2354C312.367 40.0348 312.132 39.8822 311.858 39.7773C311.59 39.668 311.293 39.6133 310.97 39.6133C310.646 39.6133 310.348 39.668 310.074 39.7773C309.805 39.8822 309.573 40.0326 309.377 40.2285C309.181 40.4245 309.028 40.6615 308.919 40.9395C308.814 41.2129 308.762 41.516 308.762 41.8486ZM320.533 43.2637C320.533 43.3822 320.54 43.4938 320.554 43.5986C320.572 43.6989 320.611 43.7878 320.67 43.8652C320.734 43.9427 320.825 44.0042 320.943 44.0498C321.062 44.0954 321.224 44.1182 321.429 44.1182C321.483 44.1182 321.547 44.1159 321.62 44.1113C321.698 44.1068 321.777 44.1022 321.859 44.0977C321.941 44.0885 322.021 44.0794 322.099 44.0703C322.176 44.0566 322.242 44.0452 322.297 44.0361L322.42 45.041C322.288 45.0592 322.151 45.0752 322.01 45.0889C321.891 45.1025 321.759 45.1139 321.613 45.123C321.467 45.1322 321.322 45.1367 321.176 45.1367C320.898 45.1367 320.647 45.1071 320.424 45.0479C320.205 44.9932 320.018 44.902 319.863 44.7744C319.708 44.6468 319.59 44.4805 319.508 44.2754C319.426 44.0658 319.385 43.8128 319.385 43.5166V39.0254H318.065V38.0137H319.385V35.7305L320.533 35.3271V38.0137H322.475V39.0254H320.533V43.2637ZM326.692 37.877C327.175 37.877 327.615 37.9681 328.012 38.1504C328.408 38.3281 328.745 38.5788 329.023 38.9023C329.306 39.2214 329.525 39.6042 329.68 40.0508C329.835 40.4928 329.912 40.9805 329.912 41.5137C329.912 42.0378 329.835 42.5231 329.68 42.9697C329.525 43.4118 329.306 43.7946 329.023 44.1182C328.745 44.4372 328.408 44.6878 328.012 44.8701C327.615 45.0479 327.175 45.1367 326.692 45.1367C326.209 45.1367 325.77 45.0479 325.373 44.8701C324.981 44.6878 324.644 44.4372 324.361 44.1182C324.079 43.7946 323.86 43.4118 323.705 42.9697C323.55 42.5231 323.473 42.0378 323.473 41.5137C323.473 40.9805 323.55 40.4928 323.705 40.0508C323.86 39.6042 324.079 39.2214 324.361 38.9023C324.644 38.5788 324.981 38.3281 325.373 38.1504C325.77 37.9681 326.209 37.877 326.692 37.877ZM326.692 44.1318C327.025 44.1318 327.317 44.0635 327.567 43.9268C327.823 43.7855 328.035 43.5964 328.203 43.3594C328.376 43.1224 328.506 42.849 328.593 42.5391C328.679 42.2246 328.723 41.8965 328.723 41.5547V41.4727C328.723 41.1217 328.679 40.7891 328.593 40.4746C328.506 40.1602 328.376 39.8867 328.203 39.6543C328.035 39.4173 327.823 39.2305 327.567 39.0938C327.317 38.9525 327.025 38.8818 326.692 38.8818C326.36 38.8818 326.066 38.9525 325.811 39.0938C325.56 39.2305 325.348 39.4173 325.175 39.6543C325.006 39.8867 324.879 40.1602 324.792 40.4746C324.705 40.7891 324.662 41.1217 324.662 41.4727V41.5547C324.662 41.8965 324.705 42.2246 324.792 42.5391C324.879 42.849 325.006 43.1224 325.175 43.3594C325.348 43.5964 325.56 43.7855 325.811 43.9268C326.066 44.0635 326.36 44.1318 326.692 44.1318ZM337.616 35.0742C338.031 35.0742 338.432 35.1335 338.819 35.252C339.211 35.3659 339.558 35.5345 339.858 35.7578C340.164 35.9766 340.408 36.25 340.59 36.5781C340.772 36.9062 340.863 37.2822 340.863 37.7061C340.863 37.9248 340.834 38.1458 340.774 38.3691C340.72 38.5879 340.626 38.7975 340.494 38.998C340.367 39.194 340.196 39.3717 339.981 39.5312C339.767 39.6908 339.505 39.8206 339.195 39.9209C339.542 40.0166 339.838 40.1533 340.084 40.3311C340.335 40.5042 340.54 40.7025 340.699 40.9258C340.863 41.1491 340.982 41.3883 341.055 41.6436C341.132 41.8942 341.171 42.1494 341.171 42.4092C341.171 42.8558 341.071 43.25 340.87 43.5918C340.67 43.9336 340.403 44.2184 340.07 44.4463C339.738 44.6742 339.357 44.8473 338.929 44.9658C338.505 45.0798 338.067 45.1367 337.616 45.1367C337.165 45.1367 336.725 45.0798 336.297 44.9658C335.868 44.8473 335.488 44.6742 335.155 44.4463C334.823 44.2184 334.556 43.9336 334.355 43.5918C334.155 43.25 334.055 42.8558 334.055 42.4092C334.055 42.1494 334.091 41.8942 334.164 41.6436C334.242 41.3883 334.36 41.1491 334.52 40.9258C334.684 40.7025 334.889 40.5042 335.135 40.3311C335.385 40.1533 335.684 40.0166 336.03 39.9209C335.72 39.8206 335.458 39.6908 335.244 39.5312C335.035 39.3717 334.864 39.194 334.731 38.998C334.604 38.7975 334.51 38.5879 334.451 38.3691C334.396 38.1458 334.369 37.9248 334.369 37.7061C334.369 37.2822 334.46 36.9062 334.643 36.5781C334.825 36.25 335.066 35.9766 335.367 35.7578C335.668 35.5345 336.012 35.3659 336.399 35.252C336.791 35.1335 337.197 35.0742 337.616 35.0742ZM335.572 37.8018C335.572 38.0706 335.629 38.3122 335.743 38.5264C335.857 38.736 336.007 38.9137 336.194 39.0596C336.381 39.2008 336.598 39.3102 336.844 39.3877C337.09 39.4606 337.347 39.4971 337.616 39.4971C337.881 39.4971 338.136 39.4606 338.382 39.3877C338.628 39.3102 338.844 39.2008 339.031 39.0596C339.223 38.9137 339.375 38.736 339.489 38.5264C339.603 38.3122 339.66 38.0706 339.66 37.8018C339.66 37.5329 339.603 37.2936 339.489 37.084C339.375 36.8743 339.223 36.6989 339.031 36.5576C338.844 36.4118 338.628 36.3024 338.382 36.2295C338.136 36.152 337.881 36.1133 337.616 36.1133C337.347 36.1133 337.09 36.152 336.844 36.2295C336.598 36.3024 336.381 36.4118 336.194 36.5576C336.007 36.6989 335.857 36.8743 335.743 37.084C335.629 37.2936 335.572 37.5329 335.572 37.8018ZM335.278 42.3135C335.278 42.6188 335.342 42.8831 335.47 43.1064C335.597 43.3298 335.768 43.5166 335.982 43.667C336.197 43.8128 336.445 43.9222 336.728 43.9951C337.01 44.068 337.306 44.1045 337.616 44.1045C337.922 44.1045 338.215 44.068 338.498 43.9951C338.781 43.9222 339.029 43.8128 339.243 43.667C339.462 43.5166 339.635 43.3298 339.763 43.1064C339.89 42.8831 339.954 42.6188 339.954 42.3135C339.954 42.0081 339.89 41.7438 339.763 41.5205C339.635 41.2972 339.462 41.1126 339.243 40.9668C339.029 40.8164 338.781 40.7048 338.498 40.6318C338.215 40.5589 337.922 40.5225 337.616 40.5225C337.306 40.5225 337.01 40.5589 336.728 40.6318C336.445 40.7048 336.197 40.8164 335.982 40.9668C335.768 41.1126 335.597 41.2972 335.47 41.5205C335.342 41.7438 335.278 42.0081 335.278 42.3135ZM343.721 42.4912C343.908 42.9606 344.192 43.3457 344.575 43.6465C344.958 43.9427 345.466 44.0908 346.1 44.0908C346.446 44.0908 346.749 44.0452 347.009 43.9541C347.273 43.8584 347.494 43.7285 347.672 43.5645C347.85 43.4004 347.982 43.2113 348.068 42.9971C348.16 42.7829 348.205 42.5505 348.205 42.2998C348.205 41.7484 347.989 41.3223 347.556 41.0215C347.127 40.7161 346.574 40.5635 345.895 40.5635H345.471V39.5107H345.854C346.227 39.5107 346.551 39.4606 346.824 39.3604C347.098 39.2555 347.326 39.1188 347.508 38.9502C347.69 38.7816 347.825 38.5924 347.911 38.3828C348.002 38.1732 348.048 37.9613 348.048 37.7471C348.048 37.542 348.005 37.3415 347.918 37.1455C347.836 36.9495 347.715 36.7741 347.556 36.6191C347.401 36.4642 347.2 36.3434 346.954 36.2568C346.713 36.1702 346.439 36.127 346.134 36.127C345.591 36.127 345.131 36.266 344.753 36.5439C344.375 36.8219 344.097 37.1683 343.919 37.583L342.914 37.0908C343.192 36.4482 343.618 35.9515 344.192 35.6006C344.767 35.2497 345.414 35.0742 346.134 35.0742C346.59 35.0742 347.009 35.1403 347.392 35.2725C347.774 35.4001 348.105 35.5846 348.383 35.8262C348.665 36.0632 348.884 36.3434 349.039 36.667C349.199 36.986 349.278 37.3324 349.278 37.7061C349.278 38.0068 349.23 38.2803 349.135 38.5264C349.044 38.7725 348.916 38.9935 348.752 39.1895C348.592 39.3854 348.399 39.5495 348.171 39.6816C347.948 39.8092 347.711 39.8981 347.46 39.9482C347.752 39.9938 348.021 40.0872 348.267 40.2285C348.513 40.3652 348.725 40.5361 348.902 40.7412C349.08 40.9463 349.219 41.1833 349.319 41.4521C349.424 41.7165 349.477 41.9945 349.477 42.2861C349.477 42.751 349.385 43.1611 349.203 43.5166C349.021 43.8721 348.772 44.1706 348.458 44.4121C348.148 44.6536 347.79 44.8359 347.385 44.959C346.979 45.0775 346.551 45.1367 346.1 45.1367C345.298 45.1367 344.58 44.9521 343.946 44.583C343.313 44.2093 342.864 43.6761 342.6 42.9834L343.721 42.4912ZM354.276 48.36V37.496H355.508V42.34C355.508 42.9187 355.653 43.362 355.942 43.67C356.231 43.9687 356.656 44.118 357.216 44.118C357.729 44.118 358.135 44.0153 358.434 43.81C358.742 43.5953 358.966 43.2873 359.106 42.886C359.246 42.4753 359.316 41.9807 359.316 41.402V37.496H360.548V43.348C360.548 43.6373 360.604 43.8427 360.716 43.964C360.828 44.076 360.963 44.132 361.122 44.132C361.197 44.132 361.276 44.1227 361.36 44.104C361.444 44.0853 361.505 44.0713 361.542 44.062V44.958C361.495 44.986 361.43 45.014 361.346 45.042C361.262 45.07 361.169 45.0933 361.066 45.112C360.963 45.1307 360.861 45.14 360.758 45.14C360.413 45.14 360.123 45.056 359.89 44.888C359.666 44.72 359.503 44.4213 359.4 43.992H359.302C359.143 44.2347 358.961 44.4447 358.756 44.622C358.56 44.79 358.327 44.916 358.056 45C357.795 45.0933 357.487 45.14 357.132 45.14C356.889 45.14 356.665 45.112 356.46 45.056C356.264 45.0093 356.082 44.9393 355.914 44.846C355.755 44.7433 355.615 44.6313 355.494 44.51H355.438C355.457 44.622 355.471 44.762 355.48 44.93C355.489 45.0887 355.494 45.2707 355.494 45.476C355.503 45.6907 355.508 45.924 355.508 46.176V48.36H354.276ZM362.506 41.124C362.506 40.6637 362.572 40.2354 362.704 39.8389C362.836 39.4424 363.025 39.1006 363.271 38.8135C363.518 38.5218 363.814 38.2939 364.16 38.1299C364.511 37.9613 364.903 37.877 365.336 37.877C365.719 37.877 366.083 37.9521 366.43 38.1025C366.776 38.2484 367.07 38.4854 367.312 38.8135V38.0137H368.46V45C368.46 45.4329 368.371 45.7952 368.193 46.0869C368.02 46.3831 367.792 46.6201 367.51 46.7979C367.227 46.9756 366.906 47.1032 366.546 47.1807C366.19 47.2581 365.828 47.2969 365.459 47.2969C365.254 47.2969 365.04 47.2855 364.816 47.2627C364.598 47.2399 364.377 47.2057 364.153 47.1602C363.93 47.1146 363.709 47.0553 363.49 46.9824C363.276 46.9141 363.071 46.832 362.875 46.7363L363.292 45.7725C363.429 45.8363 363.572 45.8978 363.723 45.957C363.873 46.0208 364.035 46.0778 364.208 46.1279C364.386 46.1781 364.575 46.2191 364.775 46.251C364.976 46.2829 365.195 46.2988 365.432 46.2988C365.723 46.2988 365.985 46.2692 366.218 46.21C366.455 46.1507 366.653 46.0573 366.812 45.9297C366.972 45.8066 367.095 45.6471 367.182 45.4512C367.268 45.2598 367.312 45.0296 367.312 44.7607V43.4346C367.07 43.7627 366.776 44.002 366.43 44.1523C366.083 44.2982 365.719 44.3711 365.336 44.3711C364.903 44.3711 364.511 44.2891 364.16 44.125C363.814 43.9564 363.518 43.7262 363.271 43.4346C363.025 43.1429 362.836 42.8011 362.704 42.4092C362.572 42.0127 362.506 41.5843 362.506 41.124ZM367.339 41.0967C367.339 40.7822 367.305 40.4928 367.236 40.2285C367.168 39.9596 367.061 39.7272 366.915 39.5312C366.769 39.3307 366.582 39.1758 366.354 39.0664C366.131 38.9525 365.862 38.8955 365.548 38.8955C365.229 38.8955 364.953 38.9525 364.721 39.0664C364.488 39.1803 364.295 39.3376 364.14 39.5381C363.989 39.734 363.878 39.9665 363.805 40.2354C363.732 40.5042 363.695 40.7913 363.695 41.0967V41.1514C363.695 41.4567 363.732 41.7438 363.805 42.0127C363.878 42.277 363.989 42.5094 364.14 42.71C364.295 42.9059 364.488 43.0609 364.721 43.1748C364.953 43.2887 365.229 43.3457 365.548 43.3457C365.862 43.3457 366.131 43.291 366.354 43.1816C366.582 43.0677 366.769 42.9128 366.915 42.7168C367.061 42.5208 367.168 42.2884 367.236 42.0195C367.305 41.7507 367.339 41.4613 367.339 41.1514V41.0967ZM373.423 35.1973H374.599L371.174 45H369.984L373.423 35.1973ZM376.862 45V38.168H377.912L378.038 39.274H378.066C378.738 38.574 379.536 38 380.432 38C381.594 38 382.238 38.532 382.546 39.442C383.344 38.588 384.114 38 385.052 38C386.62 38 387.362 39.036 387.362 40.968V45H386.102V41.136C386.102 39.708 385.64 39.092 384.66 39.092C384.086 39.092 383.456 39.484 382.742 40.268V45H381.482V41.136C381.482 39.708 381.048 39.092 380.068 39.092C379.48 39.092 378.836 39.484 378.15 40.268V45H376.862ZM386.606 37.384C385.906 37.384 385.29 37.118 384.814 36.67L385.234 36.082C385.57 36.432 385.976 36.656 386.536 36.656C387.068 36.656 387.418 36.46 387.418 36.026C387.418 35.606 386.998 35.354 386.102 35.354V34.78C386.886 34.78 387.236 34.472 387.236 34.108C387.236 33.744 386.984 33.534 386.48 33.534C386.102 33.534 385.738 33.688 385.36 33.996L384.926 33.436C385.388 33.044 385.962 32.806 386.62 32.806C387.544 32.806 388.272 33.268 388.272 34.024C388.272 34.514 387.978 34.85 387.446 35.046C388.034 35.186 388.398 35.564 388.398 36.096C388.398 36.908 387.67 37.384 386.606 37.384Z" fill="#505A5F"/>
</svg>
