<svg width="100%" height="auto" viewBox="0 0 633 164" fill="none" xmlns="http://www.w3.org/2000/svg">
<path d="M609.563 131.948H614.451V133H607.923V131.852C608.547 131.433 609.11 131.045 609.611 130.69C610.113 130.334 610.555 129.999 610.938 129.685C611.32 129.366 611.648 129.063 611.922 128.776C612.2 128.489 612.428 128.204 612.605 127.921C612.783 127.639 612.913 127.354 612.995 127.067C613.077 126.78 613.118 126.476 613.118 126.157C613.118 125.884 613.07 125.624 612.975 125.378C612.883 125.132 612.749 124.918 612.571 124.736C612.398 124.549 612.182 124.401 611.922 124.291C611.667 124.182 611.375 124.127 611.047 124.127C610.783 124.127 610.527 124.166 610.281 124.243C610.04 124.316 609.823 124.435 609.632 124.599C609.445 124.763 609.292 124.975 609.174 125.235C609.055 125.49 608.989 125.797 608.976 126.157L607.841 126.028C607.859 125.572 607.948 125.162 608.107 124.797C608.267 124.433 608.486 124.123 608.764 123.867C609.046 123.612 609.381 123.416 609.769 123.28C610.16 123.143 610.596 123.074 611.074 123.074C611.539 123.074 611.97 123.152 612.366 123.307C612.767 123.457 613.114 123.669 613.405 123.943C613.701 124.216 613.932 124.54 614.096 124.913C614.264 125.287 614.349 125.695 614.349 126.137C614.349 126.661 614.257 127.153 614.075 127.614C613.897 128.074 613.624 128.527 613.255 128.974C612.886 129.416 612.416 129.863 611.847 130.314C611.282 130.765 610.614 131.241 609.844 131.742L609.563 131.92V131.948ZM619.735 132.077C620.054 132.077 620.351 131.993 620.624 131.824C620.902 131.656 621.139 131.414 621.335 131.1C621.535 130.781 621.693 130.391 621.807 129.931C621.921 129.466 621.978 128.94 621.978 128.352V127.86C621.978 127.272 621.921 126.748 621.807 126.287C621.693 125.827 621.535 125.437 621.335 125.118C621.139 124.799 620.902 124.558 620.624 124.394C620.351 124.225 620.054 124.141 619.735 124.141C619.412 124.141 619.113 124.225 618.84 124.394C618.566 124.558 618.329 124.799 618.129 125.118C617.933 125.437 617.778 125.827 617.664 126.287C617.55 126.748 617.493 127.272 617.493 127.86V128.352C617.493 128.94 617.55 129.466 617.664 129.931C617.778 130.391 617.933 130.781 618.129 131.1C618.329 131.414 618.566 131.656 618.84 131.824C619.113 131.993 619.412 132.077 619.735 132.077ZM619.735 123.074C620.155 123.074 620.533 123.141 620.87 123.273C621.207 123.405 621.504 123.587 621.759 123.82C622.019 124.047 622.24 124.321 622.422 124.64C622.609 124.959 622.761 125.305 622.88 125.679C622.998 126.048 623.085 126.44 623.14 126.855C623.194 127.269 623.222 127.689 623.222 128.113C623.222 128.536 623.194 128.956 623.14 129.37C623.085 129.781 622.998 130.172 622.88 130.546C622.761 130.915 622.609 131.259 622.422 131.578C622.24 131.893 622.019 132.166 621.759 132.399C621.504 132.631 621.207 132.813 620.87 132.946C620.533 133.073 620.155 133.137 619.735 133.137C619.316 133.137 618.938 133.073 618.601 132.946C618.263 132.813 617.965 132.631 617.705 132.399C617.45 132.166 617.229 131.893 617.042 131.578C616.86 131.259 616.709 130.915 616.591 130.546C616.472 130.172 616.386 129.781 616.331 129.37C616.276 128.956 616.249 128.536 616.249 128.113C616.249 127.689 616.276 127.269 616.331 126.855C616.386 126.44 616.472 126.048 616.591 125.679C616.709 125.305 616.86 124.959 617.042 124.64C617.229 124.321 617.45 124.047 617.705 123.82C617.965 123.587 618.263 123.405 618.601 123.273C618.938 123.141 619.316 123.074 619.735 123.074Z" fill="#505A5F"/>
<path d="M611.396 162.077C611.715 162.077 612.011 161.993 612.284 161.824C612.562 161.656 612.799 161.414 612.995 161.1C613.196 160.781 613.353 160.391 613.467 159.931C613.581 159.466 613.638 158.94 613.638 158.352V157.86C613.638 157.272 613.581 156.748 613.467 156.287C613.353 155.827 613.196 155.437 612.995 155.118C612.799 154.799 612.562 154.558 612.284 154.394C612.011 154.225 611.715 154.141 611.396 154.141C611.072 154.141 610.773 154.225 610.5 154.394C610.227 154.558 609.99 154.799 609.789 155.118C609.593 155.437 609.438 155.827 609.324 156.287C609.21 156.748 609.153 157.272 609.153 157.86V158.352C609.153 158.94 609.21 159.466 609.324 159.931C609.438 160.391 609.593 160.781 609.789 161.1C609.99 161.414 610.227 161.656 610.5 161.824C610.773 161.993 611.072 162.077 611.396 162.077ZM611.396 153.074C611.815 153.074 612.193 153.141 612.53 153.273C612.868 153.405 613.164 153.587 613.419 153.82C613.679 154.047 613.9 154.321 614.082 154.64C614.269 154.959 614.422 155.305 614.54 155.679C614.659 156.048 614.745 156.44 614.8 156.855C614.854 157.269 614.882 157.689 614.882 158.113C614.882 158.536 614.854 158.956 614.8 159.37C614.745 159.781 614.659 160.172 614.54 160.546C614.422 160.915 614.269 161.259 614.082 161.578C613.9 161.893 613.679 162.166 613.419 162.399C613.164 162.631 612.868 162.813 612.53 162.946C612.193 163.073 611.815 163.137 611.396 163.137C610.976 163.137 610.598 163.073 610.261 162.946C609.924 162.813 609.625 162.631 609.365 162.399C609.11 162.166 608.889 161.893 608.702 161.578C608.52 161.259 608.369 160.915 608.251 160.546C608.132 160.172 608.046 159.781 607.991 159.37C607.937 158.956 607.909 158.536 607.909 158.113C607.909 157.689 607.937 157.269 607.991 156.855C608.046 156.44 608.132 156.048 608.251 155.679C608.369 155.305 608.52 154.959 608.702 154.64C608.889 154.321 609.11 154.047 609.365 153.82C609.625 153.587 609.924 153.405 610.261 153.273C610.598 153.141 610.976 153.074 611.396 153.074Z" fill="#505A5F"/>
<path d="M612.489 99.4592V94.2366L608.709 99.4592H612.489ZM612.489 103V100.464H607.561V99.2747L611.997 93.1975H613.692V99.4592H615.299V100.464H613.692V103H612.489ZM620.255 102.077C620.574 102.077 620.87 101.993 621.144 101.824C621.422 101.656 621.659 101.414 621.854 101.1C622.055 100.781 622.212 100.391 622.326 99.9309C622.44 99.4661 622.497 98.9397 622.497 98.3518V97.8596C622.497 97.2717 622.44 96.7476 622.326 96.2874C622.212 95.8271 622.055 95.4374 621.854 95.1184C621.659 94.7994 621.422 94.5579 621.144 94.3938C620.87 94.2252 620.574 94.1409 620.255 94.1409C619.931 94.1409 619.633 94.2252 619.359 94.3938C619.086 94.5579 618.849 94.7994 618.648 95.1184C618.452 95.4374 618.298 95.8271 618.184 96.2874C618.07 96.7476 618.013 97.2717 618.013 97.8596V98.3518C618.013 98.9397 618.07 99.4661 618.184 99.9309C618.298 100.391 618.452 100.781 618.648 101.1C618.849 101.414 619.086 101.656 619.359 101.824C619.633 101.993 619.931 102.077 620.255 102.077ZM620.255 93.0745C620.674 93.0745 621.052 93.1405 621.39 93.2727C621.727 93.4049 622.023 93.5872 622.278 93.8196C622.538 94.0474 622.759 94.3209 622.941 94.6399C623.128 94.9589 623.281 95.3053 623.399 95.679C623.518 96.0481 623.604 96.44 623.659 96.8547C623.714 97.2694 623.741 97.6887 623.741 98.1125C623.741 98.5364 623.714 98.9556 623.659 99.3704C623.604 99.7805 623.518 100.172 623.399 100.546C623.281 100.915 623.128 101.259 622.941 101.578C622.759 101.893 622.538 102.166 622.278 102.399C622.023 102.631 621.727 102.813 621.39 102.946C621.052 103.073 620.674 103.137 620.255 103.137C619.836 103.137 619.457 103.073 619.12 102.946C618.783 102.813 618.484 102.631 618.225 102.399C617.969 102.166 617.748 101.893 617.562 101.578C617.379 101.259 617.229 100.915 617.11 100.546C616.992 100.172 616.905 99.7805 616.851 99.3704C616.796 98.9556 616.769 98.5364 616.769 98.1125C616.769 97.6887 616.796 97.2694 616.851 96.8547C616.905 96.44 616.992 96.0481 617.11 95.679C617.229 95.3053 617.379 94.9589 617.562 94.6399C617.748 94.3209 617.969 94.0474 618.225 93.8196C618.484 93.5872 618.783 93.4049 619.12 93.2727C619.457 93.1405 619.836 93.0745 620.255 93.0745Z" fill="#505A5F"/>
<path d="M607.841 68.3928C607.841 67.9508 607.87 67.5133 607.93 67.0803C607.993 66.6428 608.089 66.2258 608.217 65.8293C608.349 65.4329 608.515 65.066 608.716 64.7288C608.921 64.3915 609.167 64.0999 609.454 63.8538C609.746 63.6077 610.078 63.414 610.452 63.2727C610.83 63.1314 611.257 63.0608 611.73 63.0608C612.072 63.0608 612.391 63.1018 612.688 63.1838C612.984 63.2613 613.253 63.3707 613.494 63.512C613.74 63.6487 613.959 63.8127 614.15 64.0042C614.342 64.1956 614.506 64.4029 614.643 64.6262L613.467 64.9954C613.029 64.3665 612.451 64.052 611.73 64.052C611.261 64.052 610.858 64.1637 610.521 64.387C610.188 64.6103 609.912 64.9065 609.693 65.2756C609.475 65.6402 609.311 66.0595 609.201 66.5334C609.096 67.0028 609.039 67.4882 609.03 67.9895H609.058C609.14 67.8209 609.26 67.6545 609.42 67.4905C609.584 67.3264 609.778 67.1783 610.001 67.0461C610.229 66.914 610.484 66.8069 610.767 66.7249C611.054 66.6428 611.361 66.6018 611.689 66.6018C612.154 66.6018 612.58 66.6838 612.968 66.8479C613.36 67.0074 613.697 67.2307 613.979 67.5178C614.267 67.8049 614.488 68.1444 614.643 68.5364C614.802 68.9283 614.882 69.3521 614.882 69.8079C614.882 70.2773 614.798 70.717 614.629 71.1272C614.465 71.5328 614.232 71.886 613.932 72.1868C613.635 72.4875 613.28 72.7245 612.865 72.8977C612.451 73.0709 611.997 73.1575 611.505 73.1575C610.985 73.1575 610.502 73.0595 610.056 72.8635C609.609 72.6676 609.222 72.3782 608.894 71.9954C608.565 71.6125 608.308 71.1409 608.121 70.5803C607.934 70.0152 607.841 69.3658 607.841 68.6321V68.3928ZM609.242 69.8489C609.242 70.1907 609.297 70.5028 609.406 70.7854C609.52 71.0634 609.675 71.3049 609.871 71.51C610.067 71.7105 610.299 71.8678 610.568 71.9817C610.842 72.0911 611.14 72.1458 611.464 72.1458C611.778 72.1458 612.07 72.0933 612.339 71.9885C612.608 71.8792 612.84 71.7265 613.036 71.5305C613.232 71.3346 613.385 71.0976 613.494 70.8196C613.608 70.5416 613.665 70.2317 613.665 69.8899C613.665 69.5435 613.61 69.2314 613.501 68.9534C613.392 68.6708 613.239 68.4316 613.043 68.2356C612.847 68.0351 612.612 67.8824 612.339 67.7776C612.07 67.6682 611.774 67.6135 611.45 67.6135C611.127 67.6135 610.828 67.6682 610.555 67.7776C610.286 67.8824 610.053 68.0328 609.857 68.2288C609.661 68.4247 609.509 68.6617 609.399 68.9397C609.295 69.2131 609.242 69.5162 609.242 69.8489ZM620.036 72.0774C620.355 72.0774 620.651 71.9931 620.925 71.8245C621.203 71.6558 621.44 71.4143 621.636 71.0999C621.836 70.7808 621.993 70.3912 622.107 69.9309C622.221 69.4661 622.278 68.9397 622.278 68.3518V67.8596C622.278 67.2717 622.221 66.7476 622.107 66.2874C621.993 65.8271 621.836 65.4374 621.636 65.1184C621.44 64.7994 621.203 64.5579 620.925 64.3938C620.651 64.2252 620.355 64.1409 620.036 64.1409C619.713 64.1409 619.414 64.2252 619.141 64.3938C618.867 64.5579 618.63 64.7994 618.43 65.1184C618.234 65.4374 618.079 65.8271 617.965 66.2874C617.851 66.7476 617.794 67.2717 617.794 67.8596V68.3518C617.794 68.9397 617.851 69.4661 617.965 69.9309C618.079 70.3912 618.234 70.7808 618.43 71.0999C618.63 71.4143 618.867 71.6558 619.141 71.8245C619.414 71.9931 619.713 72.0774 620.036 72.0774ZM620.036 63.0745C620.455 63.0745 620.834 63.1405 621.171 63.2727C621.508 63.4049 621.804 63.5872 622.06 63.8196C622.319 64.0474 622.54 64.3209 622.723 64.6399C622.91 64.9589 623.062 65.3053 623.181 65.679C623.299 66.0481 623.386 66.44 623.44 66.8547C623.495 67.2694 623.522 67.6887 623.522 68.1125C623.522 68.5364 623.495 68.9556 623.44 69.3704C623.386 69.7805 623.299 70.1724 623.181 70.5461C623.062 70.9153 622.91 71.2594 622.723 71.5784C622.54 71.8928 622.319 72.1663 622.06 72.3987C621.804 72.6311 621.508 72.8134 621.171 72.9456C620.834 73.0732 620.455 73.137 620.036 73.137C619.617 73.137 619.239 73.0732 618.901 72.9456C618.564 72.8134 618.266 72.6311 618.006 72.3987C617.751 72.1663 617.53 71.8928 617.343 71.5784C617.16 71.2594 617.01 70.9153 616.892 70.5461C616.773 70.1724 616.687 69.7805 616.632 69.3704C616.577 68.9556 616.55 68.5364 616.55 68.1125C616.55 67.6887 616.577 67.2694 616.632 66.8547C616.687 66.44 616.773 66.0481 616.892 65.679C617.01 65.3053 617.16 64.9589 617.343 64.6399C617.53 64.3209 617.751 64.0474 618.006 63.8196C618.266 63.5872 618.564 63.4049 618.901 63.2727C619.239 63.1405 619.617 63.0745 620.036 63.0745Z" fill="#505A5F"/>
<path d="M611.272 33.0745C611.687 33.0745 612.088 33.1337 612.476 33.2522C612.868 33.3661 613.214 33.5347 613.515 33.7581C613.82 33.9768 614.064 34.2502 614.246 34.5784C614.428 34.9065 614.52 35.2825 614.52 35.7063C614.52 35.925 614.49 36.1461 614.431 36.3694C614.376 36.5881 614.283 36.7978 614.15 36.9983C614.023 37.1943 613.852 37.372 613.638 37.5315C613.424 37.691 613.161 37.8209 612.852 37.9211C613.198 38.0168 613.494 38.1536 613.74 38.3313C613.991 38.5045 614.196 38.7027 614.355 38.926C614.52 39.1493 614.638 39.3886 614.711 39.6438C614.788 39.8944 614.827 40.1497 614.827 40.4094C614.827 40.856 614.727 41.2502 614.526 41.592C614.326 41.9338 614.059 42.2187 613.727 42.4465C613.394 42.6744 613.013 42.8476 612.585 42.9661C612.161 43.08 611.724 43.137 611.272 43.137C610.821 43.137 610.382 43.08 609.953 42.9661C609.525 42.8476 609.144 42.6744 608.812 42.4465C608.479 42.2187 608.212 41.9338 608.012 41.592C607.811 41.2502 607.711 40.856 607.711 40.4094C607.711 40.1497 607.747 39.8944 607.82 39.6438C607.898 39.3886 608.016 39.1493 608.176 38.926C608.34 38.7027 608.545 38.5045 608.791 38.3313C609.042 38.1536 609.34 38.0168 609.687 37.9211C609.377 37.8209 609.115 37.691 608.9 37.5315C608.691 37.372 608.52 37.1943 608.388 36.9983C608.26 36.7978 608.167 36.5881 608.107 36.3694C608.053 36.1461 608.025 35.925 608.025 35.7063C608.025 35.2825 608.117 34.9065 608.299 34.5784C608.481 34.2502 608.723 33.9768 609.023 33.7581C609.324 33.5347 609.668 33.3661 610.056 33.2522C610.448 33.1337 610.853 33.0745 611.272 33.0745ZM609.229 35.802C609.229 36.0709 609.285 36.3124 609.399 36.5266C609.513 36.7362 609.664 36.914 609.851 37.0598C610.037 37.2011 610.254 37.3105 610.5 37.3879C610.746 37.4609 611.004 37.4973 611.272 37.4973C611.537 37.4973 611.792 37.4609 612.038 37.3879C612.284 37.3105 612.501 37.2011 612.688 37.0598C612.879 36.914 613.032 36.7362 613.146 36.5266C613.259 36.3124 613.316 36.0709 613.316 35.802C613.316 35.5331 613.259 35.2939 613.146 35.0842C613.032 34.8746 612.879 34.6991 612.688 34.5579C612.501 34.412 612.284 34.3027 612.038 34.2297C611.792 34.1523 611.537 34.1135 611.272 34.1135C611.004 34.1135 610.746 34.1523 610.5 34.2297C610.254 34.3027 610.037 34.412 609.851 34.5579C609.664 34.6991 609.513 34.8746 609.399 35.0842C609.285 35.2939 609.229 35.5331 609.229 35.802ZM608.935 40.3137C608.935 40.6191 608.998 40.8834 609.126 41.1067C609.254 41.33 609.424 41.5168 609.639 41.6672C609.853 41.8131 610.101 41.9224 610.384 41.9954C610.666 42.0683 610.963 42.1047 611.272 42.1047C611.578 42.1047 611.872 42.0683 612.154 41.9954C612.437 41.9224 612.685 41.8131 612.899 41.6672C613.118 41.5168 613.291 41.33 613.419 41.1067C613.547 40.8834 613.61 40.6191 613.61 40.3137C613.61 40.0084 613.547 39.7441 613.419 39.5208C613.291 39.2974 613.118 39.1129 612.899 38.967C612.685 38.8167 612.437 38.705 612.154 38.6321C611.872 38.5592 611.578 38.5227 611.272 38.5227C610.963 38.5227 610.666 38.5592 610.384 38.6321C610.101 38.705 609.853 38.8167 609.639 38.967C609.424 39.1129 609.254 39.2974 609.126 39.5208C608.998 39.7441 608.935 40.0084 608.935 40.3137ZM619.94 42.0774C620.259 42.0774 620.556 41.9931 620.829 41.8245C621.107 41.6558 621.344 41.4143 621.54 41.0999C621.741 40.7808 621.898 40.3912 622.012 39.9309C622.126 39.4661 622.183 38.9397 622.183 38.3518V37.8596C622.183 37.2717 622.126 36.7476 622.012 36.2874C621.898 35.8271 621.741 35.4374 621.54 35.1184C621.344 34.7994 621.107 34.5579 620.829 34.3938C620.556 34.2252 620.259 34.1409 619.94 34.1409C619.617 34.1409 619.318 34.2252 619.045 34.3938C618.771 34.5579 618.535 34.7994 618.334 35.1184C618.138 35.4374 617.983 35.8271 617.869 36.2874C617.755 36.7476 617.698 37.2717 617.698 37.8596V38.3518C617.698 38.9397 617.755 39.4661 617.869 39.9309C617.983 40.3912 618.138 40.7808 618.334 41.0999C618.535 41.4143 618.771 41.6558 619.045 41.8245C619.318 41.9931 619.617 42.0774 619.94 42.0774ZM619.94 33.0745C620.36 33.0745 620.738 33.1405 621.075 33.2727C621.412 33.4049 621.709 33.5872 621.964 33.8196C622.224 34.0474 622.445 34.3209 622.627 34.6399C622.814 34.9589 622.966 35.3053 623.085 35.679C623.203 36.0481 623.29 36.44 623.345 36.8547C623.399 37.2694 623.427 37.6887 623.427 38.1125C623.427 38.5364 623.399 38.9556 623.345 39.3704C623.29 39.7805 623.203 40.1724 623.085 40.5461C622.966 40.9153 622.814 41.2594 622.627 41.5784C622.445 41.8928 622.224 42.1663 621.964 42.3987C621.709 42.6311 621.412 42.8134 621.075 42.9456C620.738 43.0732 620.36 43.137 619.94 43.137C619.521 43.137 619.143 43.0732 618.806 42.9456C618.468 42.8134 618.17 42.6311 617.91 42.3987C617.655 42.1663 617.434 41.8928 617.247 41.5784C617.065 41.2594 616.914 40.9153 616.796 40.5461C616.677 40.1724 616.591 39.7805 616.536 39.3704C616.481 38.9556 616.454 38.5364 616.454 38.1125C616.454 37.6887 616.481 37.2694 616.536 36.8547C616.591 36.44 616.677 36.0481 616.796 35.679C616.914 35.3053 617.065 34.9589 617.247 34.6399C617.434 34.3209 617.655 34.0474 617.91 33.8196C618.17 33.5872 618.468 33.4049 618.806 33.2727C619.143 33.1405 619.521 33.0745 619.94 33.0745Z" fill="#505A5F"/>
<path d="M607.854 4.78345C608.174 4.78345 608.433 4.75838 608.634 4.70825C608.834 4.65356 608.989 4.56925 609.099 4.45532C609.208 4.34139 609.281 4.19556 609.317 4.01782C609.358 3.83553 609.379 3.6145 609.379 3.35474V3.19751H610.541V13.0002H609.338V5.802H607.431V4.78345H607.854ZM616.563 12.0774C616.882 12.0774 617.179 11.9931 617.452 11.8245C617.73 11.6558 617.967 11.4143 618.163 11.0999C618.364 10.7808 618.521 10.3912 618.635 9.93091C618.749 9.46606 618.806 8.9397 618.806 8.35181V7.85962C618.806 7.27173 618.749 6.74764 618.635 6.28735C618.521 5.82707 618.364 5.43742 618.163 5.11841C617.967 4.7994 617.73 4.55786 617.452 4.3938C617.179 4.22518 616.882 4.14087 616.563 4.14087C616.24 4.14087 615.941 4.22518 615.668 4.3938C615.395 4.55786 615.158 4.7994 614.957 5.11841C614.761 5.43742 614.606 5.82707 614.492 6.28735C614.378 6.74764 614.321 7.27173 614.321 7.85962V8.35181C614.321 8.9397 614.378 9.46606 614.492 9.93091C614.606 10.3912 614.761 10.7808 614.957 11.0999C615.158 11.4143 615.395 11.6558 615.668 11.8245C615.941 11.9931 616.24 12.0774 616.563 12.0774ZM616.563 3.07446C616.983 3.07446 617.361 3.14054 617.698 3.27271C618.035 3.40487 618.332 3.58716 618.587 3.81958C618.847 4.04744 619.068 4.32088 619.25 4.63989C619.437 4.9589 619.59 5.30526 619.708 5.67896C619.826 6.0481 619.913 6.44002 619.968 6.85474C620.022 7.26945 620.05 7.68872 620.05 8.11255C620.05 8.53638 620.022 8.95565 619.968 9.37036C619.913 9.78052 619.826 10.1724 619.708 10.5461C619.59 10.9153 619.437 11.2594 619.25 11.5784C619.068 11.8928 618.847 12.1663 618.587 12.3987C618.332 12.6311 618.035 12.8134 617.698 12.9456C617.361 13.0732 616.983 13.137 616.563 13.137C616.144 13.137 615.766 13.0732 615.429 12.9456C615.091 12.8134 614.793 12.6311 614.533 12.3987C614.278 12.1663 614.057 11.8928 613.87 11.5784C613.688 11.2594 613.537 10.9153 613.419 10.5461C613.3 10.1724 613.214 9.78052 613.159 9.37036C613.104 8.95565 613.077 8.53638 613.077 8.11255C613.077 7.68872 613.104 7.26945 613.159 6.85474C613.214 6.44002 613.3 6.0481 613.419 5.67896C613.537 5.30526 613.688 4.9589 613.87 4.63989C614.057 4.32088 614.278 4.04744 614.533 3.81958C614.793 3.58716 615.091 3.40487 615.429 3.27271C615.766 3.14054 616.144 3.07446 616.563 3.07446ZM625.354 12.0774C625.674 12.0774 625.97 11.9931 626.243 11.8245C626.521 11.6558 626.758 11.4143 626.954 11.0999C627.155 10.7808 627.312 10.3912 627.426 9.93091C627.54 9.46606 627.597 8.9397 627.597 8.35181V7.85962C627.597 7.27173 627.54 6.74764 627.426 6.28735C627.312 5.82707 627.155 5.43742 626.954 5.11841C626.758 4.7994 626.521 4.55786 626.243 4.3938C625.97 4.22518 625.674 4.14087 625.354 4.14087C625.031 4.14087 624.732 4.22518 624.459 4.3938C624.186 4.55786 623.949 4.7994 623.748 5.11841C623.552 5.43742 623.397 5.82707 623.283 6.28735C623.169 6.74764 623.112 7.27173 623.112 7.85962V8.35181C623.112 8.9397 623.169 9.46606 623.283 9.93091C623.397 10.3912 623.552 10.7808 623.748 11.0999C623.949 11.4143 624.186 11.6558 624.459 11.8245C624.732 11.9931 625.031 12.0774 625.354 12.0774ZM625.354 3.07446C625.774 3.07446 626.152 3.14054 626.489 3.27271C626.826 3.40487 627.123 3.58716 627.378 3.81958C627.638 4.04744 627.859 4.32088 628.041 4.63989C628.228 4.9589 628.381 5.30526 628.499 5.67896C628.618 6.0481 628.704 6.44002 628.759 6.85474C628.813 7.26945 628.841 7.68872 628.841 8.11255C628.841 8.53638 628.813 8.95565 628.759 9.37036C628.704 9.78052 628.618 10.1724 628.499 10.5461C628.381 10.9153 628.228 11.2594 628.041 11.5784C627.859 11.8928 627.638 12.1663 627.378 12.3987C627.123 12.6311 626.826 12.8134 626.489 12.9456C626.152 13.0732 625.774 13.137 625.354 13.137C624.935 13.137 624.557 13.0732 624.22 12.9456C623.882 12.8134 623.584 12.6311 623.324 12.3987C623.069 12.1663 622.848 11.8928 622.661 11.5784C622.479 11.2594 622.328 10.9153 622.21 10.5461C622.091 10.1724 622.005 9.78052 621.95 9.37036C621.896 8.95565 621.868 8.53638 621.868 8.11255C621.868 7.68872 621.896 7.26945 621.95 6.85474C622.005 6.44002 622.091 6.0481 622.21 5.67896C622.328 5.30526 622.479 4.9589 622.661 4.63989C622.848 4.32088 623.069 4.04744 623.324 3.81958C623.584 3.58716 623.882 3.40487 624.22 3.27271C624.557 3.14054 624.935 3.07446 625.354 3.07446Z" fill="#505A5F"/>
<path d="M0 158H600" stroke="#B1B4B6"/>
<path d="M0 128H599.02" stroke="#E6E6E6"/>
<path d="M0 98.0002H599.02" stroke="#E6E6E6"/>
<path d="M0 68.0002H599.02" stroke="#E6E6E6"/>
<path d="M0 107H599.02" stroke="#FFDD00" stroke-width="3"/>
<path d="M0 38.0002H599.02" stroke="#E6E6E6"/>
<path d="M0.98053 8.00024H599.02" stroke="#E6E6E6"/>
<path d="M7.1066 150.58H0V157.5H600.372L600 143.128H590.863L559.391 135.128L535 122L507.107 135.354L488.325 145.376L464.5 153.652L439.086 154.367L414.137 153.6L388.325 146.771L362.944 154.176L338.071 154.715L312.69 154.34L287.31 155.555L262.437 154.431L235.025 150.58L210.66 153.064L185.279 145.387L160.914 137.257L134.518 124.322L108.629 139.032L83.7563 150.58L57.3604 154.431L32.9949 153.064L7.1066 150.58Z" fill="#EBF0F7"/>
<path d="M0 151.58H7.1066L32.9949 154.064L57.3604 155.431L83.7563 151.58L108.629 140.032L134.518 125.322L160.914 138.257L185.279 146.387L210.66 154.064L235.025 151.58L262.437 155.431L287.31 156.555L312.69 155.34L338.071 155.715L362.944 155.176L388.325 147.771L414.137 154.6L439.086 155.367L464.5 154.652L488.325 146.376L507.107 136.354L535 123L559.391 136.128L590.863 144.128H600" stroke="#3A70B3" stroke-width="3"/>
<path d="M315.5 97.5L308 105L301 97.5L256 97.5L206 97.5L206 62L411.5 62L411.5 97.5L315.5 97.5Z" fill="white" stroke="#525A5F"/>
<path d="M223.748 75.1973H225.231V85H224.015V76.6191L220.665 81.1924H220.651L217.281 76.626V85H216.105V75.1973H217.637L220.686 79.3672L223.748 75.1973ZM230.27 77.877C230.753 77.877 231.192 77.9681 231.589 78.1504C231.985 78.3281 232.323 78.5788 232.601 78.9023C232.883 79.2214 233.102 79.6042 233.257 80.0508C233.412 80.4928 233.489 80.9805 233.489 81.5137C233.489 82.0378 233.412 82.5231 233.257 82.9697C233.102 83.4118 232.883 83.7946 232.601 84.1182C232.323 84.4372 231.985 84.6878 231.589 84.8701C231.192 85.0479 230.753 85.1367 230.27 85.1367C229.786 85.1367 229.347 85.0479 228.95 84.8701C228.558 84.6878 228.221 84.4372 227.938 84.1182C227.656 83.7946 227.437 83.4118 227.282 82.9697C227.127 82.5231 227.05 82.0378 227.05 81.5137C227.05 80.9805 227.127 80.4928 227.282 80.0508C227.437 79.6042 227.656 79.2214 227.938 78.9023C228.221 78.5788 228.558 78.3281 228.95 78.1504C229.347 77.9681 229.786 77.877 230.27 77.877ZM230.27 84.1318C230.602 84.1318 230.894 84.0635 231.145 83.9268C231.4 83.7855 231.612 83.5964 231.78 83.3594C231.953 83.1224 232.083 82.849 232.17 82.5391C232.257 82.2246 232.3 81.8965 232.3 81.5547V81.4727C232.3 81.1217 232.257 80.7891 232.17 80.4746C232.083 80.1602 231.953 79.8867 231.78 79.6543C231.612 79.4173 231.4 79.2305 231.145 79.0938C230.894 78.9525 230.602 78.8818 230.27 78.8818C229.937 78.8818 229.643 78.9525 229.388 79.0938C229.137 79.2305 228.925 79.4173 228.752 79.6543C228.583 79.8867 228.456 80.1602 228.369 80.4746C228.283 80.7891 228.239 81.1217 228.239 81.4727V81.5547C228.239 81.8965 228.283 82.2246 228.369 82.5391C228.456 82.849 228.583 83.1224 228.752 83.3594C228.925 83.5964 229.137 83.7855 229.388 83.9268C229.643 84.0635 229.937 84.1318 230.27 84.1318ZM239.771 84.2002C239.566 84.4873 239.286 84.7152 238.931 84.8838C238.58 85.0524 238.179 85.1367 237.728 85.1367C237.276 85.1367 236.868 85.0479 236.504 84.8701C236.139 84.6878 235.827 84.4372 235.567 84.1182C235.308 83.7946 235.107 83.4118 234.966 82.9697C234.829 82.5277 234.761 82.0423 234.761 81.5137C234.761 80.985 234.829 80.4997 234.966 80.0576C235.107 79.611 235.308 79.2259 235.567 78.9023C235.827 78.5788 236.139 78.3281 236.504 78.1504C236.868 77.9681 237.276 77.877 237.728 77.877C238.179 77.877 238.58 77.9613 238.931 78.1299C239.286 78.2985 239.566 78.5264 239.771 78.8135V75.1973H240.92V85H239.771V84.2002ZM235.95 81.541C235.95 81.9056 235.993 82.2451 236.08 82.5596C236.167 82.874 236.294 83.1475 236.463 83.3799C236.632 83.6077 236.839 83.7878 237.085 83.9199C237.331 84.0521 237.616 84.1182 237.939 84.1182C238.245 84.1182 238.511 84.0658 238.739 83.9609C238.972 83.8561 239.165 83.7126 239.32 83.5303C239.475 83.348 239.591 83.1338 239.669 82.8877C239.746 82.637 239.785 82.3659 239.785 82.0742V80.9395C239.785 80.6478 239.746 80.3789 239.669 80.1328C239.591 79.8822 239.475 79.6657 239.32 79.4834C239.165 79.3011 238.972 79.1576 238.739 79.0527C238.511 78.9479 238.245 78.8955 237.939 78.8955C237.616 78.8955 237.331 78.9616 237.085 79.0938C236.839 79.2259 236.632 79.4082 236.463 79.6406C236.294 79.8685 236.167 80.1396 236.08 80.4541C235.993 80.7686 235.95 81.1081 235.95 81.4727V81.541ZM243.812 81.8623C243.834 82.1904 243.9 82.4935 244.01 82.7715C244.119 83.0495 244.267 83.291 244.454 83.4961C244.646 83.6966 244.869 83.8538 245.124 83.9678C245.384 84.0771 245.671 84.1318 245.985 84.1318C246.373 84.1318 246.712 84.068 247.004 83.9404C247.3 83.8083 247.571 83.6442 247.817 83.4482L248.405 84.2754C248.091 84.526 247.726 84.7334 247.312 84.8975C246.901 85.057 246.441 85.1367 245.931 85.1367C245.425 85.1367 244.967 85.0479 244.557 84.8701C244.146 84.6878 243.796 84.4372 243.504 84.1182C243.217 83.7946 242.996 83.4118 242.841 82.9697C242.686 82.5231 242.608 82.0378 242.608 81.5137C242.608 80.9805 242.684 80.4928 242.834 80.0508C242.989 79.6042 243.205 79.2214 243.483 78.9023C243.761 78.5788 244.094 78.3281 244.481 78.1504C244.869 77.9681 245.299 77.877 245.773 77.877C246.234 77.877 246.648 77.9681 247.018 78.1504C247.387 78.3281 247.701 78.5788 247.961 78.9023C248.221 79.2214 248.419 79.6042 248.556 80.0508C248.697 80.4928 248.768 80.9759 248.768 81.5V81.8623H243.812ZM245.732 78.8818C245.441 78.8818 245.181 78.9388 244.953 79.0527C244.725 79.1667 244.529 79.3193 244.365 79.5107C244.206 79.7021 244.078 79.9232 243.982 80.1738C243.891 80.4199 243.839 80.6751 243.825 80.9395H247.523C247.514 80.6706 247.466 80.4131 247.38 80.167C247.298 79.9163 247.179 79.6976 247.024 79.5107C246.874 79.3193 246.689 79.1667 246.471 79.0527C246.257 78.9388 246.01 78.8818 245.732 78.8818ZM253.942 79.0391H253.758C253.462 79.0391 253.179 79.0732 252.91 79.1416C252.641 79.21 252.404 79.333 252.199 79.5107C251.994 79.6885 251.83 79.9323 251.707 80.2422C251.584 80.5475 251.522 80.9395 251.522 81.418V85H250.374V78.0137H251.522V79.1211C251.609 78.916 251.725 78.736 251.871 78.5811C252.017 78.4261 252.181 78.2985 252.363 78.1982C252.55 78.0934 252.748 78.016 252.958 77.9658C253.172 77.9157 253.389 77.8906 253.607 77.8906H253.942V79.0391ZM259.268 84.3027C259.062 84.5397 258.785 84.738 258.434 84.8975C258.087 85.057 257.679 85.1367 257.21 85.1367C256.864 85.1367 256.542 85.0889 256.246 84.9932C255.95 84.8929 255.692 84.7516 255.474 84.5693C255.255 84.387 255.084 84.166 254.961 83.9062C254.838 83.6465 254.776 83.3525 254.776 83.0244C254.776 82.751 254.82 82.5026 254.906 82.2793C254.997 82.0514 255.123 81.8532 255.282 81.6846C255.446 81.516 255.642 81.3792 255.87 81.2744C256.098 81.165 256.353 81.0898 256.636 81.0488L259.104 80.7139V80.2695C259.104 80.0052 259.062 79.7842 258.98 79.6064C258.898 79.4242 258.787 79.2806 258.646 79.1758C258.509 79.071 258.345 78.9958 258.153 78.9502C257.966 78.9046 257.764 78.8818 257.545 78.8818C257.153 78.8818 256.786 78.9365 256.444 79.0459C256.107 79.1553 255.802 79.2829 255.528 79.4287L255.098 78.5195C255.499 78.2917 255.918 78.1276 256.355 78.0273C256.798 77.9271 257.233 77.877 257.661 77.877C258.513 77.877 259.158 78.0706 259.596 78.458C260.033 78.8408 260.252 79.4014 260.252 80.1396V83.3594C260.252 83.5918 260.298 83.7878 260.389 83.9473C260.48 84.1022 260.626 84.2253 260.826 84.3164L260.177 85.1367C259.958 85.082 259.769 84.9863 259.609 84.8496C259.454 84.7083 259.345 84.5397 259.281 84.3438L259.268 84.3027ZM257.224 81.8896C257.032 81.917 256.857 81.9557 256.697 82.0059C256.542 82.056 256.41 82.1243 256.301 82.2109C256.191 82.293 256.105 82.3955 256.041 82.5186C255.982 82.6416 255.952 82.792 255.952 82.9697C255.952 83.1748 255.991 83.3571 256.068 83.5166C256.146 83.6761 256.251 83.8105 256.383 83.9199C256.515 84.0293 256.668 84.1136 256.841 84.1729C257.019 84.2275 257.203 84.2549 257.395 84.2549C257.609 84.2549 257.818 84.2253 258.023 84.166C258.229 84.1068 258.411 84.0225 258.57 83.9131C258.73 83.7992 258.857 83.6624 258.953 83.5029C259.053 83.3434 259.104 83.1611 259.104 82.9561V81.6094L257.224 81.8896ZM264.142 83.2637C264.142 83.3822 264.148 83.4938 264.162 83.5986C264.18 83.6989 264.219 83.7878 264.278 83.8652C264.342 83.9427 264.433 84.0042 264.552 84.0498C264.67 84.0954 264.832 84.1182 265.037 84.1182C265.092 84.1182 265.156 84.1159 265.229 84.1113C265.306 84.1068 265.386 84.1022 265.468 84.0977C265.55 84.0885 265.63 84.0794 265.707 84.0703C265.785 84.0566 265.851 84.0452 265.905 84.0361L266.028 85.041C265.896 85.0592 265.759 85.0752 265.618 85.0889C265.5 85.1025 265.368 85.1139 265.222 85.123C265.076 85.1322 264.93 85.1367 264.784 85.1367C264.506 85.1367 264.256 85.1071 264.032 85.0479C263.813 84.9932 263.627 84.902 263.472 84.7744C263.317 84.6468 263.198 84.4805 263.116 84.2754C263.034 84.0658 262.993 83.8128 262.993 83.5166V79.0254H261.674V78.0137H262.993V75.7305L264.142 75.3271V78.0137H266.083V79.0254H264.142V83.2637ZM268.284 81.8623C268.307 82.1904 268.373 82.4935 268.482 82.7715C268.592 83.0495 268.74 83.291 268.927 83.4961C269.118 83.6966 269.341 83.8538 269.597 83.9678C269.856 84.0771 270.144 84.1318 270.458 84.1318C270.845 84.1318 271.185 84.068 271.477 83.9404C271.773 83.8083 272.044 83.6442 272.29 83.4482L272.878 84.2754C272.563 84.526 272.199 84.7334 271.784 84.8975C271.374 85.057 270.914 85.1367 270.403 85.1367C269.897 85.1367 269.439 85.0479 269.029 84.8701C268.619 84.6878 268.268 84.4372 267.977 84.1182C267.689 83.7946 267.468 83.4118 267.313 82.9697C267.159 82.5231 267.081 82.0378 267.081 81.5137C267.081 80.9805 267.156 80.4928 267.307 80.0508C267.462 79.6042 267.678 79.2214 267.956 78.9023C268.234 78.5788 268.567 78.3281 268.954 78.1504C269.341 77.9681 269.772 77.877 270.246 77.877C270.706 77.877 271.121 77.9681 271.49 78.1504C271.859 78.3281 272.174 78.5788 272.434 78.9023C272.693 79.2214 272.892 79.6042 273.028 80.0508C273.17 80.4928 273.24 80.9759 273.24 81.5V81.8623H268.284ZM270.205 78.8818C269.913 78.8818 269.654 78.9388 269.426 79.0527C269.198 79.1667 269.002 79.3193 268.838 79.5107C268.678 79.7021 268.551 79.9232 268.455 80.1738C268.364 80.4199 268.312 80.6751 268.298 80.9395H271.996C271.987 80.6706 271.939 80.4131 271.853 80.167C271.771 79.9163 271.652 79.6976 271.497 79.5107C271.347 79.3193 271.162 79.1667 270.943 79.0527C270.729 78.9388 270.483 78.8818 270.205 78.8818ZM277.602 75.1973H278.75V83.4346C278.75 83.5485 278.759 83.6488 278.777 83.7354C278.8 83.8219 278.837 83.8949 278.887 83.9541C278.937 84.0133 279.005 84.0589 279.092 84.0908C279.183 84.1182 279.295 84.1318 279.427 84.1318C279.573 84.1318 279.705 84.1273 279.823 84.1182C279.942 84.109 280.047 84.0999 280.138 84.0908L280.254 85.0547C280.122 85.0684 279.99 85.082 279.857 85.0957C279.743 85.1048 279.618 85.1139 279.481 85.123C279.345 85.1322 279.215 85.1367 279.092 85.1367C278.887 85.1367 278.693 85.1117 278.511 85.0615C278.328 85.016 278.169 84.9385 278.032 84.8291C277.9 84.7197 277.795 84.5785 277.718 84.4053C277.64 84.2321 277.602 84.0202 277.602 83.7695V75.1973ZM282.134 81.8623C282.157 82.1904 282.223 82.4935 282.332 82.7715C282.441 83.0495 282.59 83.291 282.776 83.4961C282.968 83.6966 283.191 83.8538 283.446 83.9678C283.706 84.0771 283.993 84.1318 284.308 84.1318C284.695 84.1318 285.035 84.068 285.326 83.9404C285.622 83.8083 285.894 83.6442 286.14 83.4482L286.728 84.2754C286.413 84.526 286.049 84.7334 285.634 84.8975C285.224 85.057 284.763 85.1367 284.253 85.1367C283.747 85.1367 283.289 85.0479 282.879 84.8701C282.469 84.6878 282.118 84.4372 281.826 84.1182C281.539 83.7946 281.318 83.4118 281.163 82.9697C281.008 82.5231 280.931 82.0378 280.931 81.5137C280.931 80.9805 281.006 80.4928 281.156 80.0508C281.311 79.6042 281.528 79.2214 281.806 78.9023C282.084 78.5788 282.416 78.3281 282.804 78.1504C283.191 77.9681 283.622 77.877 284.096 77.877C284.556 77.877 284.971 77.9681 285.34 78.1504C285.709 78.3281 286.023 78.5788 286.283 78.9023C286.543 79.2214 286.741 79.6042 286.878 80.0508C287.019 80.4928 287.09 80.9759 287.09 81.5V81.8623H282.134ZM284.055 78.8818C283.763 78.8818 283.503 78.9388 283.275 79.0527C283.048 79.1667 282.852 79.3193 282.688 79.5107C282.528 79.7021 282.4 79.9232 282.305 80.1738C282.214 80.4199 282.161 80.6751 282.147 80.9395H285.846C285.837 80.6706 285.789 80.4131 285.702 80.167C285.62 79.9163 285.502 79.6976 285.347 79.5107C285.196 79.3193 285.012 79.1667 284.793 79.0527C284.579 78.9388 284.333 78.8818 284.055 78.8818ZM290.098 85L287.883 78.0137H289.188L290.863 83.9336L292.531 78.0137H293.837L291.622 85H290.098ZM295.874 81.8623C295.897 82.1904 295.963 82.4935 296.072 82.7715C296.182 83.0495 296.33 83.291 296.517 83.4961C296.708 83.6966 296.931 83.8538 297.187 83.9678C297.446 84.0771 297.733 84.1318 298.048 84.1318C298.435 84.1318 298.775 84.068 299.066 83.9404C299.363 83.8083 299.634 83.6442 299.88 83.4482L300.468 84.2754C300.153 84.526 299.789 84.7334 299.374 84.8975C298.964 85.057 298.504 85.1367 297.993 85.1367C297.487 85.1367 297.029 85.0479 296.619 84.8701C296.209 84.6878 295.858 84.4372 295.566 84.1182C295.279 83.7946 295.058 83.4118 294.903 82.9697C294.748 82.5231 294.671 82.0378 294.671 81.5137C294.671 80.9805 294.746 80.4928 294.896 80.0508C295.051 79.6042 295.268 79.2214 295.546 78.9023C295.824 78.5788 296.157 78.3281 296.544 78.1504C296.931 77.9681 297.362 77.877 297.836 77.877C298.296 77.877 298.711 77.9681 299.08 78.1504C299.449 78.3281 299.764 78.5788 300.023 78.9023C300.283 79.2214 300.481 79.6042 300.618 80.0508C300.759 80.4928 300.83 80.9759 300.83 81.5V81.8623H295.874ZM297.795 78.8818C297.503 78.8818 297.243 78.9388 297.016 79.0527C296.788 79.1667 296.592 79.3193 296.428 79.5107C296.268 79.7021 296.141 79.9232 296.045 80.1738C295.954 80.4199 295.901 80.6751 295.888 80.9395H299.586C299.577 80.6706 299.529 80.4131 299.442 80.167C299.36 79.9163 299.242 79.6976 299.087 79.5107C298.937 79.3193 298.752 79.1667 298.533 79.0527C298.319 78.9388 298.073 78.8818 297.795 78.8818ZM302.389 75.1973H303.537V83.4346C303.537 83.5485 303.546 83.6488 303.564 83.7354C303.587 83.8219 303.624 83.8949 303.674 83.9541C303.724 84.0133 303.792 84.0589 303.879 84.0908C303.97 84.1182 304.082 84.1318 304.214 84.1318C304.36 84.1318 304.492 84.1273 304.61 84.1182C304.729 84.109 304.834 84.0999 304.925 84.0908L305.041 85.0547C304.909 85.0684 304.777 85.082 304.645 85.0957C304.531 85.1048 304.405 85.1139 304.269 85.123C304.132 85.1322 304.002 85.1367 303.879 85.1367C303.674 85.1367 303.48 85.1117 303.298 85.0615C303.116 85.016 302.956 84.9385 302.819 84.8291C302.687 84.7197 302.582 84.5785 302.505 84.4053C302.427 84.2321 302.389 84.0202 302.389 83.7695V75.1973ZM310.817 83.0654C310.817 83.3936 310.744 83.6875 310.599 83.9473C310.457 84.2025 310.268 84.4189 310.031 84.5967C309.794 84.7744 309.521 84.9089 309.211 85C308.906 85.0911 308.591 85.1367 308.268 85.1367C307.757 85.1367 307.265 85.0501 306.791 84.877C306.322 84.6992 305.905 84.4463 305.54 84.1182L306.169 83.3047C306.278 83.4004 306.404 83.5007 306.545 83.6055C306.691 83.7103 306.853 83.8083 307.03 83.8994C307.208 83.986 307.399 84.0589 307.604 84.1182C307.81 84.1729 308.026 84.2002 308.254 84.2002C308.441 84.2002 308.618 84.1774 308.787 84.1318C308.96 84.0817 309.111 84.0111 309.238 83.9199C309.366 83.8242 309.466 83.7126 309.539 83.585C309.617 83.4528 309.655 83.3047 309.655 83.1406C309.655 82.9583 309.614 82.8057 309.532 82.6826C309.455 82.5596 309.348 82.4548 309.211 82.3682C309.074 82.2816 308.915 82.2064 308.732 82.1426C308.55 82.0788 308.359 82.015 308.158 81.9512L307.721 81.8076C307.475 81.7256 307.238 81.6322 307.01 81.5273C306.782 81.4225 306.579 81.2949 306.401 81.1445C306.228 80.9896 306.089 80.8073 305.984 80.5977C305.884 80.388 305.834 80.1374 305.834 79.8457C305.834 79.6087 305.884 79.374 305.984 79.1416C306.085 78.9046 306.237 78.6927 306.442 78.5059C306.652 78.319 306.916 78.1686 307.235 78.0547C307.554 77.9362 307.93 77.877 308.363 77.877C308.842 77.877 309.284 77.9567 309.689 78.1162C310.1 78.2757 310.446 78.474 310.729 78.7109L310.127 79.5381C310.027 79.4424 309.908 79.3512 309.771 79.2646C309.635 79.1781 309.489 79.1029 309.334 79.0391C309.179 78.9707 309.017 78.916 308.849 78.875C308.68 78.834 308.514 78.8135 308.35 78.8135C308.099 78.8135 307.887 78.8431 307.714 78.9023C307.541 78.957 307.402 79.0299 307.297 79.1211C307.192 79.2122 307.115 79.3148 307.064 79.4287C307.019 79.5426 306.996 79.6543 306.996 79.7637C306.996 79.9232 307.03 80.0576 307.099 80.167C307.167 80.2718 307.256 80.363 307.365 80.4404C307.479 80.5179 307.607 80.584 307.748 80.6387C307.894 80.6934 308.044 80.748 308.199 80.8027L308.773 80.9941C309.047 81.0853 309.298 81.1833 309.525 81.2881C309.753 81.3883 309.954 81.5046 310.127 81.6367C310.346 81.8099 310.514 82.0104 310.633 82.2383C310.756 82.4661 310.817 82.7419 310.817 83.0654ZM316.163 82.4912C316.35 82.9606 316.635 83.3457 317.018 83.6465C317.4 83.9427 317.909 84.0908 318.542 84.0908C318.888 84.0908 319.191 84.0452 319.451 83.9541C319.715 83.8584 319.937 83.7285 320.114 83.5645C320.292 83.4004 320.424 83.2113 320.511 82.9971C320.602 82.7829 320.647 82.5505 320.647 82.2998C320.647 81.7484 320.431 81.3223 319.998 81.0215C319.57 80.7161 319.016 80.5635 318.337 80.5635H317.913V79.5107H318.296C318.67 79.5107 318.993 79.4606 319.267 79.3604C319.54 79.2555 319.768 79.1188 319.95 78.9502C320.132 78.7816 320.267 78.5924 320.354 78.3828C320.445 78.1732 320.49 77.9613 320.49 77.7471C320.49 77.542 320.447 77.3415 320.36 77.1455C320.278 76.9495 320.158 76.7741 319.998 76.6191C319.843 76.4642 319.643 76.3434 319.396 76.2568C319.155 76.1702 318.882 76.127 318.576 76.127C318.034 76.127 317.574 76.266 317.195 76.5439C316.817 76.8219 316.539 77.1683 316.361 77.583L315.356 77.0908C315.634 76.4482 316.061 75.9515 316.635 75.6006C317.209 75.2497 317.856 75.0742 318.576 75.0742C319.032 75.0742 319.451 75.1403 319.834 75.2725C320.217 75.4001 320.547 75.5846 320.825 75.8262C321.108 76.0632 321.326 76.3434 321.481 76.667C321.641 76.986 321.721 77.3324 321.721 77.7061C321.721 78.0068 321.673 78.2803 321.577 78.5264C321.486 78.7725 321.358 78.9935 321.194 79.1895C321.035 79.3854 320.841 79.5495 320.613 79.6816C320.39 79.8092 320.153 79.8981 319.902 79.9482C320.194 79.9938 320.463 80.0872 320.709 80.2285C320.955 80.3652 321.167 80.5361 321.345 80.7412C321.522 80.9463 321.661 81.1833 321.762 81.4521C321.867 81.7165 321.919 81.9945 321.919 82.2861C321.919 82.751 321.828 83.1611 321.646 83.5166C321.463 83.8721 321.215 84.1706 320.9 84.4121C320.59 84.6536 320.233 84.8359 319.827 84.959C319.422 85.0775 318.993 85.1367 318.542 85.1367C317.74 85.1367 317.022 84.9521 316.389 84.583C315.755 84.2093 315.306 83.6761 315.042 82.9834L316.163 82.4912ZM323.566 80.3926C323.566 79.9505 323.596 79.513 323.655 79.0801C323.719 78.6426 323.815 78.2256 323.942 77.8291C324.075 77.4326 324.241 77.0658 324.441 76.7285C324.646 76.3913 324.893 76.0996 325.18 75.8535C325.471 75.6074 325.804 75.4137 326.178 75.2725C326.556 75.1312 326.982 75.0605 327.456 75.0605C327.798 75.0605 328.117 75.1016 328.413 75.1836C328.709 75.2611 328.978 75.3704 329.22 75.5117C329.466 75.6484 329.685 75.8125 329.876 76.0039C330.067 76.1953 330.231 76.4027 330.368 76.626L329.192 76.9951C328.755 76.3662 328.176 76.0518 327.456 76.0518C326.987 76.0518 326.583 76.1634 326.246 76.3867C325.913 76.61 325.638 76.9062 325.419 77.2754C325.2 77.64 325.036 78.0592 324.927 78.5332C324.822 79.0026 324.765 79.488 324.756 79.9893H324.783C324.865 79.8206 324.986 79.6543 325.146 79.4902C325.31 79.3262 325.503 79.1781 325.727 79.0459C325.954 78.9137 326.21 78.8066 326.492 78.7246C326.779 78.6426 327.087 78.6016 327.415 78.6016C327.88 78.6016 328.306 78.6836 328.693 78.8477C329.085 79.0072 329.423 79.2305 329.705 79.5176C329.992 79.8047 330.213 80.1442 330.368 80.5361C330.528 80.9281 330.607 81.3519 330.607 81.8076C330.607 82.277 330.523 82.7168 330.354 83.127C330.19 83.5326 329.958 83.8857 329.657 84.1865C329.361 84.4873 329.006 84.7243 328.591 84.8975C328.176 85.0706 327.723 85.1572 327.23 85.1572C326.711 85.1572 326.228 85.0592 325.781 84.8633C325.335 84.6673 324.947 84.3779 324.619 83.9951C324.291 83.6123 324.034 83.1406 323.847 82.5801C323.66 82.015 323.566 81.3656 323.566 80.6318V80.3926ZM324.968 81.8486C324.968 82.1904 325.022 82.5026 325.132 82.7852C325.246 83.0632 325.401 83.3047 325.597 83.5098C325.793 83.7103 326.025 83.8675 326.294 83.9814C326.567 84.0908 326.866 84.1455 327.189 84.1455C327.504 84.1455 327.796 84.0931 328.064 83.9883C328.333 83.8789 328.566 83.7262 328.762 83.5303C328.958 83.3343 329.11 83.0973 329.22 82.8193C329.334 82.5413 329.391 82.2314 329.391 81.8896C329.391 81.5433 329.336 81.2311 329.227 80.9531C329.117 80.6706 328.965 80.4313 328.769 80.2354C328.573 80.0348 328.338 79.8822 328.064 79.7773C327.796 79.668 327.499 79.6133 327.176 79.6133C326.852 79.6133 326.554 79.668 326.28 79.7773C326.011 79.8822 325.779 80.0326 325.583 80.2285C325.387 80.4245 325.234 80.6615 325.125 80.9395C325.02 81.2129 324.968 81.516 324.968 81.8486ZM336.739 83.2637C336.739 83.3822 336.746 83.4938 336.76 83.5986C336.778 83.6989 336.817 83.7878 336.876 83.8652C336.94 83.9427 337.031 84.0042 337.149 84.0498C337.268 84.0954 337.43 84.1182 337.635 84.1182C337.689 84.1182 337.753 84.1159 337.826 84.1113C337.904 84.1068 337.983 84.1022 338.065 84.0977C338.147 84.0885 338.227 84.0794 338.305 84.0703C338.382 84.0566 338.448 84.0452 338.503 84.0361L338.626 85.041C338.494 85.0592 338.357 85.0752 338.216 85.0889C338.097 85.1025 337.965 85.1139 337.819 85.123C337.674 85.1322 337.528 85.1367 337.382 85.1367C337.104 85.1367 336.853 85.1071 336.63 85.0479C336.411 84.9932 336.224 84.902 336.069 84.7744C335.914 84.6468 335.796 84.4805 335.714 84.2754C335.632 84.0658 335.591 83.8128 335.591 83.5166V79.0254H334.271V78.0137H335.591V75.7305L336.739 75.3271V78.0137H338.681V79.0254H336.739V83.2637ZM342.898 77.877C343.382 77.877 343.821 77.9681 344.218 78.1504C344.614 78.3281 344.951 78.5788 345.229 78.9023C345.512 79.2214 345.731 79.6042 345.886 80.0508C346.041 80.4928 346.118 80.9805 346.118 81.5137C346.118 82.0378 346.041 82.5231 345.886 82.9697C345.731 83.4118 345.512 83.7946 345.229 84.1182C344.951 84.4372 344.614 84.6878 344.218 84.8701C343.821 85.0479 343.382 85.1367 342.898 85.1367C342.415 85.1367 341.976 85.0479 341.579 84.8701C341.187 84.6878 340.85 84.4372 340.567 84.1182C340.285 83.7946 340.066 83.4118 339.911 82.9697C339.756 82.5231 339.679 82.0378 339.679 81.5137C339.679 80.9805 339.756 80.4928 339.911 80.0508C340.066 79.6042 340.285 79.2214 340.567 78.9023C340.85 78.5788 341.187 78.3281 341.579 78.1504C341.976 77.9681 342.415 77.877 342.898 77.877ZM342.898 84.1318C343.231 84.1318 343.523 84.0635 343.773 83.9268C344.029 83.7855 344.241 83.5964 344.409 83.3594C344.582 83.1224 344.712 82.849 344.799 82.5391C344.885 82.2246 344.929 81.8965 344.929 81.5547V81.4727C344.929 81.1217 344.885 80.7891 344.799 80.4746C344.712 80.1602 344.582 79.8867 344.409 79.6543C344.241 79.4173 344.029 79.2305 343.773 79.0938C343.523 78.9525 343.231 78.8818 342.898 78.8818C342.566 78.8818 342.272 78.9525 342.017 79.0938C341.766 79.2305 341.554 79.4173 341.381 79.6543C341.212 79.8867 341.085 80.1602 340.998 80.4746C340.911 80.7891 340.868 81.1217 340.868 81.4727V81.5547C340.868 81.8965 340.911 82.2246 340.998 82.5391C341.085 82.849 341.212 83.1224 341.381 83.3594C341.554 83.5964 341.766 83.7855 342.017 83.9268C342.272 84.0635 342.566 84.1318 342.898 84.1318ZM355.039 81.459V76.2363L351.259 81.459H355.039ZM355.039 85V82.4639H350.11V81.2744L354.547 75.1973H356.242V81.459H357.849V82.4639H356.242V85H355.039ZM359.127 76.7832C359.446 76.7832 359.706 76.7581 359.906 76.708C360.107 76.6533 360.262 76.569 360.371 76.4551C360.48 76.3411 360.553 76.1953 360.59 76.0176C360.631 75.8353 360.651 75.6143 360.651 75.3545V75.1973H361.813V85H360.61V77.8018H358.703V76.7832H359.127ZM367.433 88.36V77.496H368.665V82.34C368.665 82.9187 368.81 83.362 369.099 83.67C369.388 83.9687 369.813 84.118 370.373 84.118C370.886 84.118 371.292 84.0153 371.591 83.81C371.899 83.5953 372.123 83.2873 372.263 82.886C372.403 82.4753 372.473 81.9807 372.473 81.402V77.496H373.705V83.348C373.705 83.6373 373.761 83.8427 373.873 83.964C373.985 84.076 374.12 84.132 374.279 84.132C374.354 84.132 374.433 84.1227 374.517 84.104C374.601 84.0853 374.662 84.0713 374.699 84.062V84.958C374.652 84.986 374.587 85.014 374.503 85.042C374.419 85.07 374.326 85.0933 374.223 85.112C374.12 85.1307 374.018 85.14 373.915 85.14C373.57 85.14 373.28 85.056 373.047 84.888C372.823 84.72 372.66 84.4213 372.557 83.992H372.459C372.3 84.2347 372.118 84.4447 371.913 84.622C371.717 84.79 371.484 84.916 371.213 85C370.952 85.0933 370.644 85.14 370.289 85.14C370.046 85.14 369.822 85.112 369.617 85.056C369.421 85.0093 369.239 84.9393 369.071 84.846C368.912 84.7433 368.772 84.6313 368.651 84.51H368.595C368.614 84.622 368.628 84.762 368.637 84.93C368.646 85.0887 368.651 85.2707 368.651 85.476C368.66 85.6907 368.665 85.924 368.665 86.176V88.36H367.433ZM375.663 81.124C375.663 80.6637 375.729 80.2354 375.861 79.8389C375.993 79.4424 376.183 79.1006 376.429 78.8135C376.675 78.5218 376.971 78.2939 377.317 78.1299C377.668 77.9613 378.06 77.877 378.493 77.877C378.876 77.877 379.241 77.9521 379.587 78.1025C379.933 78.2484 380.227 78.4854 380.469 78.8135V78.0137H381.617V85C381.617 85.4329 381.528 85.7952 381.351 86.0869C381.177 86.3831 380.95 86.6201 380.667 86.7979C380.384 86.9756 380.063 87.1032 379.703 87.1807C379.348 87.2581 378.985 87.2969 378.616 87.2969C378.411 87.2969 378.197 87.2855 377.974 87.2627C377.755 87.2399 377.534 87.2057 377.311 87.1602C377.087 87.1146 376.866 87.0553 376.647 86.9824C376.433 86.9141 376.228 86.832 376.032 86.7363L376.449 85.7725C376.586 85.8363 376.729 85.8978 376.88 85.957C377.03 86.0208 377.192 86.0778 377.365 86.1279C377.543 86.1781 377.732 86.2191 377.933 86.251C378.133 86.2829 378.352 86.2988 378.589 86.2988C378.881 86.2988 379.143 86.2692 379.375 86.21C379.612 86.1507 379.81 86.0573 379.97 85.9297C380.129 85.8066 380.252 85.6471 380.339 85.4512C380.425 85.2598 380.469 85.0296 380.469 84.7607V83.4346C380.227 83.7627 379.933 84.002 379.587 84.1523C379.241 84.2982 378.876 84.3711 378.493 84.3711C378.06 84.3711 377.668 84.2891 377.317 84.125C376.971 83.9564 376.675 83.7262 376.429 83.4346C376.183 83.1429 375.993 82.8011 375.861 82.4092C375.729 82.0127 375.663 81.5843 375.663 81.124ZM380.496 81.0967C380.496 80.7822 380.462 80.4928 380.394 80.2285C380.325 79.9596 380.218 79.7272 380.072 79.5312C379.926 79.3307 379.74 79.1758 379.512 79.0664C379.288 78.9525 379.02 78.8955 378.705 78.8955C378.386 78.8955 378.11 78.9525 377.878 79.0664C377.646 79.1803 377.452 79.3376 377.297 79.5381C377.146 79.734 377.035 79.9665 376.962 80.2354C376.889 80.5042 376.853 80.7913 376.853 81.0967V81.1514C376.853 81.4567 376.889 81.7438 376.962 82.0127C377.035 82.277 377.146 82.5094 377.297 82.71C377.452 82.9059 377.646 83.0609 377.878 83.1748C378.11 83.2887 378.386 83.3457 378.705 83.3457C379.02 83.3457 379.288 83.291 379.512 83.1816C379.74 83.0677 379.926 82.9128 380.072 82.7168C380.218 82.5208 380.325 82.2884 380.394 82.0195C380.462 81.7507 380.496 81.4613 380.496 81.1514V81.0967ZM386.58 75.1973H387.756L384.331 85H383.142L386.58 75.1973ZM390.019 85V78.168H391.069L391.195 79.274H391.223C391.895 78.574 392.693 78 393.589 78C394.751 78 395.395 78.532 395.703 79.442C396.501 78.588 397.271 78 398.209 78C399.777 78 400.519 79.036 400.519 80.968V85H399.259V81.136C399.259 79.708 398.797 79.092 397.817 79.092C397.243 79.092 396.613 79.484 395.899 80.268V85H394.639V81.136C394.639 79.708 394.205 79.092 393.225 79.092C392.637 79.092 391.993 79.484 391.307 80.268V85H390.019ZM399.763 77.384C399.063 77.384 398.447 77.118 397.971 76.67L398.391 76.082C398.727 76.432 399.133 76.656 399.693 76.656C400.225 76.656 400.575 76.46 400.575 76.026C400.575 75.606 400.155 75.354 399.259 75.354V74.78C400.043 74.78 400.393 74.472 400.393 74.108C400.393 73.744 400.141 73.534 399.637 73.534C399.259 73.534 398.895 73.688 398.517 73.996L398.083 73.436C398.545 73.044 399.119 72.806 399.777 72.806C400.701 72.806 401.429 73.268 401.429 74.024C401.429 74.514 401.135 74.85 400.603 75.046C401.191 75.186 401.555 75.564 401.555 76.096C401.555 76.908 400.827 77.384 399.763 77.384Z" fill="#505A5F"/>
</svg>
